# Tessellated polygon floor; this is render mesh topology, not a gameplay grid.
v -9 0 -8
v -7 0 -8
v -5 0 -8
v -3 0 -8
v -1 0 -8
v 1 0 -8
v 3 0 -8
v 5 0 -8
v 7 0 -8
v 9 0 -8
v -9 0 -6
v -7 0 -6
v -5 0 -6
v -3 0 -6
v -1 0 -6
v 1 0 -6
v 3 0 -6
v 5 0 -6
v 7 0 -6
v 9 0 -6
v -9 0 -4
v -7 0 -4
v -5 0 -4
v -3 0 -4
v -1 0 -4
v 1 0 -4
v 3 0 -4
v 5 0 -4
v 7 0 -4
v 9 0 -4
v -9 0 -2
v -7 0 -2
v -5 0 -2
v -3 0 -2
v -1 0 -2
v 1 0 -2
v 3 0 -2
v 5 0 -2
v 7 0 -2
v 9 0 -2
v -9 0 0
v -7 0 0
v -5 0 0
v -3 0 0
v -1 0 0
v 1 0 0
v 3 0 0
v 5 0 0
v 7 0 0
v 9 0 0
v -9 0 2
v -7 0 2
v -5 0 2
v -3 0 2
v -1 0 2
v 1 0 2
v 3 0 2
v 5 0 2
v 7 0 2
v 9 0 2
v -9 0 4
v -7 0 4
v -5 0 4
v -3 0 4
v -1 0 4
v 1 0 4
v 3 0 4
v 5 0 4
v 7 0 4
v 9 0 4
v -9 0 6
v -7 0 6
v -5 0 6
v -3 0 6
v -1 0 6
v 1 0 6
v 3 0 6
v 5 0 6
v 7 0 6
v 9 0 6
v -9 0 8
v -7 0 8
v -5 0 8
v -3 0 8
v -1 0 8
v 1 0 8
v 3 0 8
v 5 0 8
v 7 0 8
v 9 0 8
f 1 11 12 2
f 2 12 13 3
f 3 13 14 4
f 4 14 15 5
f 5 15 16 6
f 6 16 17 7
f 7 17 18 8
f 8 18 19 9
f 9 19 20 10
f 11 21 22 12
f 12 22 23 13
f 13 23 24 14
f 14 24 25 15
f 15 25 26 16
f 16 26 27 17
f 17 27 28 18
f 18 28 29 19
f 19 29 30 20
f 21 31 32 22
f 22 32 33 23
f 23 33 34 24
f 24 34 35 25
f 25 35 36 26
f 26 36 37 27
f 27 37 38 28
f 28 38 39 29
f 29 39 40 30
f 31 41 42 32
f 32 42 43 33
f 33 43 44 34
f 34 44 45 35
f 35 45 46 36
f 36 46 47 37
f 37 47 48 38
f 38 48 49 39
f 39 49 50 40
f 41 51 52 42
f 42 52 53 43
f 43 53 54 44
f 44 54 55 45
f 45 55 56 46
f 46 56 57 47
f 47 57 58 48
f 48 58 59 49
f 49 59 60 50
f 51 61 62 52
f 52 62 63 53
f 53 63 64 54
f 54 64 65 55
f 55 65 66 56
f 56 66 67 57
f 57 67 68 58
f 58 68 69 59
f 59 69 70 60
f 61 71 72 62
f 62 72 73 63
f 63 73 74 64
f 64 74 75 65
f 65 75 76 66
f 66 76 77 67
f 67 77 78 68
f 68 78 79 69
f 69 79 80 70
f 71 81 82 72
f 72 82 83 73
f 73 83 84 74
f 74 84 85 75
f 75 85 86 76
f 76 86 87 77
f 77 87 88 78
f 78 88 89 79
f 79 89 90 80
