# DarkLantern64 authored guard facing +Z
v -0.22 0.6 -0.13
v 0.22 0.6 -0.13
v 0.22 1.25 -0.13
v -0.22 1.25 -0.13
v -0.22 0.6 0.15
v 0.22 0.6 0.15
v 0.22 1.25 0.15
v -0.22 1.25 0.15
f 4 3 2 1
f 5 6 7 8
f 1 5 8 4
f 2 3 7 6
f 4 8 7 3
f 1 2 6 5
v -0.16 1.25 -0.12
v 0.16 1.25 -0.12
v 0.16 1.6 -0.12
v -0.16 1.6 -0.12
v -0.16 1.25 0.18
v 0.16 1.25 0.18
v 0.16 1.6 0.18
v -0.16 1.6 0.18
f 12 11 10 9
f 13 14 15 16
f 9 13 16 12
f 10 11 15 14
f 12 16 15 11
f 9 10 14 13
v -0.2 0 -0.1
v -0.025 0 -0.1
v -0.025 0.6 -0.1
v -0.2 0.6 -0.1
v -0.2 0 0.12
v -0.025 0 0.12
v -0.025 0.6 0.12
v -0.2 0.6 0.12
f 20 19 18 17
f 21 22 23 24
f 17 21 24 20
f 18 19 23 22
f 20 24 23 19
f 17 18 22 21
v 0.025 0 -0.1
v 0.2 0 -0.1
v 0.2 0.6 -0.1
v 0.025 0.6 -0.1
v 0.025 0 0.12
v 0.2 0 0.12
v 0.2 0.6 0.12
v 0.025 0.6 0.12
f 28 27 26 25
f 29 30 31 32
f 25 29 32 28
f 26 27 31 30
f 28 32 31 27
f 25 26 30 29
v -0.36 0.65 -0.09
v -0.22 0.65 -0.09
v -0.22 1.19 -0.09
v -0.36 1.19 -0.09
v -0.36 0.65 0.1
v -0.22 0.65 0.1
v -0.22 1.19 0.1
v -0.36 1.19 0.1
f 36 35 34 33
f 37 38 39 40
f 33 37 40 36
f 34 35 39 38
f 36 40 39 35
f 33 34 38 37
v 0.22 0.65 -0.09
v 0.36 0.65 -0.09
v 0.36 1.19 -0.09
v 0.22 1.19 -0.09
v 0.22 0.65 0.1
v 0.36 0.65 0.1
v 0.36 1.19 0.1
v 0.22 1.19 0.1
f 44 43 42 41
f 45 46 47 48
f 41 45 48 44
f 42 43 47 46
f 44 48 47 43
f 41 42 46 45
v -0.07 1.34 0.18
v 0.07 1.34 0.18
v 0.07 1.43 0.18
v -0.07 1.43 0.18
v -0.07 1.34 0.28
v 0.07 1.34 0.28
v 0.07 1.43 0.28
v -0.07 1.43 0.28
f 52 51 50 49
f 53 54 55 56
f 49 53 56 52
f 50 51 55 54
f 52 56 55 51
f 49 50 54 53
