# DarkLantern64 authored night_lamppost; metres, Y up. OBJ UVs are source data.
# Closed lamp-cap underside remains visible with back-face culling.
v -0.19 0.17 -0.19
v 0.19 0.17 -0.19
v 0.19 0 -0.19
v -0.19 0 -0.19
v -0.19 0 0.19
v 0.19 0 0.19
v 0.19 0.17 0.19
v -0.19 0.17 0.19
v -0.19 0 -0.19
v -0.19 0 0.19
v -0.19 0.17 0.19
v -0.19 0.17 -0.19
v 0.19 0 -0.19
v 0.19 0.17 -0.19
v 0.19 0.17 0.19
v 0.19 0 0.19
v -0.19 0.17 -0.19
v -0.19 0.17 0.19
v 0.19 0.17 0.19
v 0.19 0.17 -0.19
v -0.19 0 -0.19
v 0.19 0 -0.19
v 0.19 0 0.19
v -0.19 0 0.19
v 0.095 0.17 0
v 0.0475 0.17 0.08227241
v 0.03 2.48 0.05196152
v 0.06 2.48 0
v 0.0475 0.17 0.08227241
v -0.0475 0.17 0.08227241
v -0.03 2.48 0.05196152
v 0.03 2.48 0.05196152
v -0.0475 0.17 0.08227241
v -0.095 0.17 1.163414e-17
v -0.06 2.48 7.347881e-18
v -0.03 2.48 0.05196152
v -0.095 0.17 1.163414e-17
v -0.0475 0.17 -0.08227241
v -0.03 2.48 -0.05196152
v -0.06 2.48 7.347881e-18
v -0.0475 0.17 -0.08227241
v 0.0475 0.17 -0.08227241
v 0.03 2.48 -0.05196152
v -0.03 2.48 -0.05196152
v 0.0475 0.17 -0.08227241
v 0.095 0.17 -2.326829e-17
v 0.06 2.48 -1.469576e-17
v 0.03 2.48 -0.05196152
v -0.25 2.52 -0.25
v 0.25 2.52 -0.25
v 0.25 2.46 -0.25
v -0.25 2.46 -0.25
v -0.25 2.46 0.25
v 0.25 2.46 0.25
v 0.25 2.52 0.25
v -0.25 2.52 0.25
v -0.25 2.46 -0.25
v -0.25 2.46 0.25
v -0.25 2.52 0.25
v -0.25 2.52 -0.25
v 0.25 2.46 -0.25
v 0.25 2.52 -0.25
v 0.25 2.52 0.25
v 0.25 2.46 0.25
v -0.25 2.52 -0.25
v -0.25 2.52 0.25
v 0.25 2.52 0.25
v 0.25 2.52 -0.25
v -0.25 2.46 -0.25
v 0.25 2.46 -0.25
v 0.25 2.46 0.25
v -0.25 2.46 0.25
v 0.2828427 2.94 0.2828427
v -0.2828427 2.94 0.2828427
v 0 3.12 0
v -0.2828427 2.94 0.2828427
v -0.2828427 2.94 -0.2828427
v 0 3.12 0
v -0.2828427 2.94 -0.2828427
v 0.2828427 2.94 -0.2828427
v 0 3.12 0
v 0.2828427 2.94 -0.2828427
v 0.2828427 2.94 0.2828427
v 0 3.12 0
v -0.195 2.94 -0.195
v -0.145 2.94 -0.195
v -0.145 2.52 -0.195
v -0.195 2.52 -0.195
v -0.195 2.52 -0.145
v -0.145 2.52 -0.145
v -0.145 2.94 -0.145
v -0.195 2.94 -0.145
v -0.195 2.52 -0.195
v -0.195 2.52 -0.145
v -0.195 2.94 -0.145
v -0.195 2.94 -0.195
v -0.145 2.52 -0.195
v -0.145 2.94 -0.195
v -0.145 2.94 -0.145
v -0.145 2.52 -0.145
v -0.195 2.94 -0.195
v -0.195 2.94 -0.145
v -0.145 2.94 -0.145
v -0.145 2.94 -0.195
v -0.195 2.52 -0.195
v -0.145 2.52 -0.195
v -0.145 2.52 -0.145
v -0.195 2.52 -0.145
v 0.145 2.94 0.145
v 0.195 2.94 0.145
v 0.195 2.52 0.145
v 0.145 2.52 0.145
v 0.145 2.52 0.195
v 0.195 2.52 0.195
v 0.195 2.94 0.195
v 0.145 2.94 0.195
v 0.145 2.52 0.145
v 0.145 2.52 0.195
v 0.145 2.94 0.195
v 0.145 2.94 0.145
v 0.195 2.52 0.145
v 0.195 2.94 0.145
v 0.195 2.94 0.195
v 0.195 2.52 0.195
v 0.145 2.94 0.145
v 0.145 2.94 0.195
v 0.195 2.94 0.195
v 0.195 2.94 0.145
v 0.145 2.52 0.145
v 0.195 2.52 0.145
v 0.195 2.52 0.195
v 0.145 2.52 0.195
v 0.2828427 2.94 0.2828427
v -0.2828427 2.94 0.2828427
v -0.2828427 2.94 -0.2828427
v 0.2828427 2.94 -0.2828427
vt 0 0
vt 1 0
vt 1 1
vt 0 1
vt 0 0
vt 1 0
vt 1 1
vt 0 1
vt 0 0
vt 1 0
vt 1 1
vt 0 1
vt 0 0
vt 1 0
vt 1 1
vt 0 1
vt 0 0
vt 1 0
vt 1 1
vt 0 1
vt 0 0
vt 1 0
vt 1 1
vt 0 1
vt 0 0
vt 1 0
vt 1 1
vt 0 1
vt 0 0
vt 1 0
vt 1 1
vt 0 1
vt 0 0
vt 1 0
vt 1 1
vt 0 1
vt 0 0
vt 1 0
vt 1 1
vt 0 1
vt 0 0
vt 1 0
vt 1 1
vt 0 1
vt 0 0
vt 1 0
vt 1 1
vt 0 1
vt 0 0
vt 1 0
vt 1 1
vt 0 1
vt 0 0
vt 1 0
vt 1 1
vt 0 1
vt 0 0
vt 1 0
vt 1 1
vt 0 1
vt 0 0
vt 1 0
vt 1 1
vt 0 1
vt 0 0
vt 1 0
vt 1 1
vt 0 1
vt 0 0
vt 1 0
vt 1 1
vt 0 1
vt 0 0
vt 1 0
vt 0.5 1
vt 0 0
vt 1 0
vt 0.5 1
vt 0 0
vt 1 0
vt 0.5 1
vt 0 0
vt 1 0
vt 0.5 1
vt 0 0
vt 1 0
vt 1 1
vt 0 1
vt 0 0
vt 1 0
vt 1 1
vt 0 1
vt 0 0
vt 1 0
vt 1 1
vt 0 1
vt 0 0
vt 1 0
vt 1 1
vt 0 1
vt 0 0
vt 1 0
vt 1 1
vt 0 1
vt 0 0
vt 1 0
vt 1 1
vt 0 1
vt 0 0
vt 1 0
vt 1 1
vt 0 1
vt 0 0
vt 1 0
vt 1 1
vt 0 1
vt 0 0
vt 1 0
vt 1 1
vt 0 1
vt 0 0
vt 1 0
vt 1 1
vt 0 1
vt 0 0
vt 1 0
vt 1 1
vt 0 1
vt 0 0
vt 1 0
vt 1 1
vt 0 1
vt 0 0
vt 1 0
vt 1 1
vt 0 1
f 1/1 2/2 3/3 4/4
f 5/5 6/6 7/7 8/8
f 9/9 10/10 11/11 12/12
f 13/13 14/14 15/15 16/16
f 17/17 18/18 19/19 20/20
f 21/21 22/22 23/23 24/24
f 28/28 27/27 26/26 25/25
f 32/32 31/31 30/30 29/29
f 36/36 35/35 34/34 33/33
f 40/40 39/39 38/38 37/37
f 44/44 43/43 42/42 41/41
f 48/48 47/47 46/46 45/45
f 49/49 50/50 51/51 52/52
f 53/53 54/54 55/55 56/56
f 57/57 58/58 59/59 60/60
f 61/61 62/62 63/63 64/64
f 65/65 66/66 67/67 68/68
f 69/69 70/70 71/71 72/72
f 75/75 74/74 73/73
f 78/78 77/77 76/76
f 81/81 80/80 79/79
f 84/84 83/83 82/82
f 85/85 86/86 87/87 88/88
f 89/89 90/90 91/91 92/92
f 93/93 94/94 95/95 96/96
f 97/97 98/98 99/99 100/100
f 101/101 102/102 103/103 104/104
f 105/105 106/106 107/107 108/108
f 109/109 110/110 111/111 112/112
f 113/113 114/114 115/115 116/116
f 117/117 118/118 119/119 120/120
f 121/121 122/122 123/123 124/124
f 125/125 126/126 127/127 128/128
f 129/129 130/130 131/131 132/132
f 133/133 134/134 135/135 136/136
