# DarkLantern64 authored night_barrel; metres, Y up. OBJ UVs are source data.
v 0.43 0 0
v 0.215 0 0.3723909
v 0.215 0.9 0.3723909
v 0.43 0.9 0
v 0 0.9 0
v 0.215 0.9 0.3723909
v 0.43 0.9 0
v 0.215 0 0.3723909
v -0.215 0 0.3723909
v -0.215 0.9 0.3723909
v 0.215 0.9 0.3723909
v 0 0.9 0
v -0.215 0.9 0.3723909
v 0.215 0.9 0.3723909
v -0.215 0 0.3723909
v -0.43 0 5.265981e-17
v -0.43 0.9 5.265981e-17
v -0.215 0.9 0.3723909
v 0 0.9 0
v -0.43 0.9 5.265981e-17
v -0.215 0.9 0.3723909
v -0.43 0 5.265981e-17
v -0.215 0 -0.3723909
v -0.215 0.9 -0.3723909
v -0.43 0.9 5.265981e-17
v 0 0.9 0
v -0.215 0.9 -0.3723909
v -0.43 0.9 5.265981e-17
v -0.215 0 -0.3723909
v 0.215 0 -0.3723909
v 0.215 0.9 -0.3723909
v -0.215 0.9 -0.3723909
v 0 0.9 0
v 0.215 0.9 -0.3723909
v -0.215 0.9 -0.3723909
v 0.215 0 -0.3723909
v 0.43 0 -1.053196e-16
v 0.43 0.9 -1.053196e-16
v 0.215 0.9 -0.3723909
v 0 0.9 0
v 0.43 0.9 -1.053196e-16
v 0.215 0.9 -0.3723909
vt 0 0
vt 1 0
vt 1 1
vt 0 1
vt 0.5 0.5
vt 1 1
vt 0 1
vt 0 0
vt 1 0
vt 1 1
vt 0 1
vt 0.5 0.5
vt 1 1
vt 0 1
vt 0 0
vt 1 0
vt 1 1
vt 0 1
vt 0.5 0.5
vt 1 1
vt 0 1
vt 0 0
vt 1 0
vt 1 1
vt 0 1
vt 0.5 0.5
vt 1 1
vt 0 1
vt 0 0
vt 1 0
vt 1 1
vt 0 1
vt 0.5 0.5
vt 1 1
vt 0 1
vt 0 0
vt 1 0
vt 1 1
vt 0 1
vt 0.5 0.5
vt 1 1
vt 0 1
f 4/4 3/3 2/2 1/1
f 5/5 6/6 7/7
f 11/11 10/10 9/9 8/8
f 12/12 13/13 14/14
f 18/18 17/17 16/16 15/15
f 19/19 20/20 21/21
f 25/25 24/24 23/23 22/22
f 26/26 27/27 28/28
f 32/32 31/31 30/30 29/29
f 33/33 34/34 35/35
f 39/39 38/38 37/37 36/36
f 40/40 41/41 42/42
