# DarkLantern64 authored night_roof; metres, Y up. OBJ UVs are source data.
v -0.5 0 -0.5
v 0 1 -0.5
v 0 1 0.5
v -0.5 0 0.5
v 0 1 -0.5
v 0.5 0 -0.5
v 0.5 0 0.5
v 0 1 0.5
v -0.5 0 -0.5
v 0.5 0 -0.5
v 0 1 -0.5
v 0.5 0 0.5
v -0.5 0 0.5
v 0 1 0.5
v -0.5 0 -0.5
v -0.5 0 0.5
v 0.5 0 0.5
v 0.5 0 -0.5
vt 0 0
vt 1 0
vt 1 1
vt 0 1
vt 0 0
vt 1 0
vt 1 1
vt 0 1
vt 0 0
vt 1 0
vt 0.5 1
vt 0 0
vt 1 0
vt 0.5 1
vt 0 0
vt 1 0
vt 1 1
vt 0 1
f 4/4 3/3 2/2 1/1
f 8/8 7/7 6/6 5/5
f 11/11 10/10 9/9
f 14/14 13/13 12/12
f 18/18 17/17 16/16 15/15
