# DarkLantern64 authored night_paving; metres, Y up. OBJ UVs are source data.
v -5.5 0 -7.5
v -5.5 0 -6
v -3.992518 0 -6
v -4.125 0 -7.5
v -4.125 0 -7.5
v -3.992518 0 -6
v -2.617518 0 -6
v -2.75 0 -7.5
v -2.75 0 -7.5
v -2.617518 0 -6
v -1.242518 0 -6
v -1.375 0 -7.5
v -1.375 0 -7.5
v -1.242518 0 -6
v 0.132482 0 -6
v 0 0 -7.5
v 0 0 -7.5
v 0.132482 0 -6
v 1.507482 0 -6
v 1.375 0 -7.5
v 1.375 0 -7.5
v 1.507482 0 -6
v 2.882482 0 -6
v 2.75 0 -7.5
v 2.75 0 -7.5
v 2.882482 0 -6
v 4.257482 0 -6
v 4.125 0 -7.5
v 4.125 0 -7.5
v 4.257482 0 -6
v 5.5 0 -6
v 5.5 0 -7.5
v -5.5 0 -6
v -5.5 0 -4.5
v -4.21066 0 -4.5
v -3.992518 0 -6
v -3.992518 0 -6
v -4.21066 0 -4.5
v -2.83566 0 -4.5
v -2.617518 0 -6
v -2.617518 0 -6
v -2.83566 0 -4.5
v -1.46066 0 -4.5
v -1.242518 0 -6
v -1.242518 0 -6
v -1.46066 0 -4.5
v -0.0856601 0 -4.5
v 0.132482 0 -6
v 0.132482 0 -6
v -0.0856601 0 -4.5
v 1.28934 0 -4.5
v 1.507482 0 -6
v 1.507482 0 -6
v 1.28934 0 -4.5
v 2.66434 0 -4.5
v 2.882482 0 -6
v 2.882482 0 -6
v 2.66434 0 -4.5
v 4.03934 0 -4.5
v 4.257482 0 -6
v 4.257482 0 -6
v 4.03934 0 -4.5
v 5.5 0 -4.5
v 5.5 0 -6
v -5.5 0 -4.5
v -5.5 0 -3
v -4.202096 0 -3
v -4.21066 0 -4.5
v -4.21066 0 -4.5
v -4.202096 0 -3
v -2.827096 0 -3
v -2.83566 0 -4.5
v -2.83566 0 -4.5
v -2.827096 0 -3
v -1.452096 0 -3
v -1.46066 0 -4.5
v -1.46066 0 -4.5
v -1.452096 0 -3
v -0.07709598 0 -3
v -0.0856601 0 -4.5
v -0.0856601 0 -4.5
v -0.07709598 0 -3
v 1.297904 0 -3
v 1.28934 0 -4.5
v 1.28934 0 -4.5
v 1.297904 0 -3
v 2.672904 0 -3
v 2.66434 0 -4.5
v 2.66434 0 -4.5
v 2.672904 0 -3
v 4.047904 0 -3
v 4.03934 0 -4.5
v 4.03934 0 -4.5
v 4.047904 0 -3
v 5.5 0 -3
v 5.5 0 -4.5
v -5.5 0 -3
v -5.5 0 -1.5
v -3.989491 0 -1.5
v -4.202096 0 -3
v -4.202096 0 -3
v -3.989491 0 -1.5
v -2.614491 0 -1.5
v -2.827096 0 -3
v -2.827096 0 -3
v -2.614491 0 -1.5
v -1.239491 0 -1.5
v -1.452096 0 -3
v -1.452096 0 -3
v -1.239491 0 -1.5
v 0.1355088 0 -1.5
v -0.07709598 0 -3
v -0.07709598 0 -3
v 0.1355088 0 -1.5
v 1.510509 0 -1.5
v 1.297904 0 -3
v 1.297904 0 -3
v 1.510509 0 -1.5
v 2.885509 0 -1.5
v 2.672904 0 -3
v 2.672904 0 -3
v 2.885509 0 -1.5
v 4.260509 0 -1.5
v 4.047904 0 -3
v 4.047904 0 -3
v 4.260509 0 -1.5
v 5.5 0 -1.5
v 5.5 0 -3
v -5.5 0 -1.5
v -5.5 0 0
v -4.135521 0 0
v -3.989491 0 -1.5
v -3.989491 0 -1.5
v -4.135521 0 0
v -2.760521 0 0
v -2.614491 0 -1.5
v -2.614491 0 -1.5
v -2.760521 0 0
v -1.385521 0 0
v -1.239491 0 -1.5
v -1.239491 0 -1.5
v -1.385521 0 0
v -0.01052116 0 0
v 0.1355088 0 -1.5
v 0.1355088 0 -1.5
v -0.01052116 0 0
v 1.364479 0 0
v 1.510509 0 -1.5
v 1.510509 0 -1.5
v 1.364479 0 0
v 2.739479 0 0
v 2.885509 0 -1.5
v 2.885509 0 -1.5
v 2.739479 0 0
v 4.114479 0 0
v 4.260509 0 -1.5
v 4.260509 0 -1.5
v 4.114479 0 0
v 5.5 0 0
v 5.5 0 -1.5
v -5.5 0 0
v -5.5 0 1.5
v -4.253706 0 1.5
v -4.135521 0 0
v -4.135521 0 0
v -4.253706 0 1.5
v -2.878706 0 1.5
v -2.760521 0 0
v -2.760521 0 0
v -2.878706 0 1.5
v -1.503706 0 1.5
v -1.385521 0 0
v -1.385521 0 0
v -1.503706 0 1.5
v -0.128706 0 1.5
v -0.01052116 0 0
v -0.01052116 0 0
v -0.128706 0 1.5
v 1.246294 0 1.5
v 1.364479 0 0
v 1.364479 0 0
v 1.246294 0 1.5
v 2.621294 0 1.5
v 2.739479 0 0
v 2.739479 0 0
v 2.621294 0 1.5
v 3.996294 0 1.5
v 4.114479 0 0
v 4.114479 0 0
v 3.996294 0 1.5
v 5.5 0 1.5
v 5.5 0 0
v -5.5 0 1.5
v -5.5 0 3
v -4.03126 0 3
v -4.253706 0 1.5
v -4.253706 0 1.5
v -4.03126 0 3
v -2.65626 0 3
v -2.878706 0 1.5
v -2.878706 0 1.5
v -2.65626 0 3
v -1.28126 0 3
v -1.503706 0 1.5
v -1.503706 0 1.5
v -1.28126 0 3
v 0.09373977 0 3
v -0.128706 0 1.5
v -0.128706 0 1.5
v 0.09373977 0 3
v 1.46874 0 3
v 1.246294 0 1.5
v 1.246294 0 1.5
v 1.46874 0 3
v 2.84374 0 3
v 2.621294 0 1.5
v 2.621294 0 1.5
v 2.84374 0 3
v 4.21874 0 3
v 3.996294 0 1.5
v 3.996294 0 1.5
v 4.21874 0 3
v 5.5 0 3
v 5.5 0 1.5
v -5.5 0 3
v -5.5 0 4.5
v -4.056904 0 4.5
v -4.03126 0 3
v -4.03126 0 3
v -4.056904 0 4.5
v -2.681904 0 4.5
v -2.65626 0 3
v -2.65626 0 3
v -2.681904 0 4.5
v -1.306904 0 4.5
v -1.28126 0 3
v -1.28126 0 3
v -1.306904 0 4.5
v 0.06809582 0 4.5
v 0.09373977 0 3
v 0.09373977 0 3
v 0.06809582 0 4.5
v 1.443096 0 4.5
v 1.46874 0 3
v 1.46874 0 3
v 1.443096 0 4.5
v 2.818096 0 4.5
v 2.84374 0 3
v 2.84374 0 3
v 2.818096 0 4.5
v 4.193096 0 4.5
v 4.21874 0 3
v 4.21874 0 3
v 4.193096 0 4.5
v 5.5 0 4.5
v 5.5 0 3
v -5.5 0 4.5
v -5.5 0 6
v -4.262769 0 6
v -4.056904 0 4.5
v -4.056904 0 4.5
v -4.262769 0 6
v -2.887769 0 6
v -2.681904 0 4.5
v -2.681904 0 4.5
v -2.887769 0 6
v -1.512769 0 6
v -1.306904 0 4.5
v -1.306904 0 4.5
v -1.512769 0 6
v -0.1377691 0 6
v 0.06809582 0 4.5
v 0.06809582 0 4.5
v -0.1377691 0 6
v 1.237231 0 6
v 1.443096 0 4.5
v 1.443096 0 4.5
v 1.237231 0 6
v 2.612231 0 6
v 2.818096 0 4.5
v 2.818096 0 4.5
v 2.612231 0 6
v 3.987231 0 6
v 4.193096 0 4.5
v 4.193096 0 4.5
v 3.987231 0 6
v 5.5 0 6
v 5.5 0 4.5
v -5.5 0 6
v -5.5 0 7.5
v -4.125 0 7.5
v -4.262769 0 6
v -4.262769 0 6
v -4.125 0 7.5
v -2.75 0 7.5
v -2.887769 0 6
v -2.887769 0 6
v -2.75 0 7.5
v -1.375 0 7.5
v -1.512769 0 6
v -1.512769 0 6
v -1.375 0 7.5
v 0 0 7.5
v -0.1377691 0 6
v -0.1377691 0 6
v 0 0 7.5
v 1.375 0 7.5
v 1.237231 0 6
v 1.237231 0 6
v 1.375 0 7.5
v 2.75 0 7.5
v 2.612231 0 6
v 2.612231 0 6
v 2.75 0 7.5
v 4.125 0 7.5
v 3.987231 0 6
v 3.987231 0 6
v 4.125 0 7.5
v 5.5 0 7.5
v 5.5 0 6
vt 0 0
vt 0 0.75
vt 0.753741 0.75
vt 0.6875 0
vt 0.6875 0
vt 0.753741 0.75
vt 1.441241 0.75
vt 1.375 0
vt 1.375 0
vt 1.441241 0.75
vt 2.128741 0.75
vt 2.0625 0
vt 2.0625 0
vt 2.128741 0.75
vt 2.816241 0.75
vt 2.75 0
vt 2.75 0
vt 2.816241 0.75
vt 3.503741 0.75
vt 3.4375 0
vt 3.4375 0
vt 3.503741 0.75
vt 4.191241 0.75
vt 4.125 0
vt 4.125 0
vt 4.191241 0.75
vt 4.878741 0.75
vt 4.8125 0
vt 4.8125 0
vt 4.878741 0.75
vt 5.5 0.75
vt 5.5 0
vt 0 0.75
vt 0 1.5
vt 0.6446699 1.5
vt 0.753741 0.75
vt 0.753741 0.75
vt 0.6446699 1.5
vt 1.33217 1.5
vt 1.441241 0.75
vt 1.441241 0.75
vt 1.33217 1.5
vt 2.01967 1.5
vt 2.128741 0.75
vt 2.128741 0.75
vt 2.01967 1.5
vt 2.70717 1.5
vt 2.816241 0.75
vt 2.816241 0.75
vt 2.70717 1.5
vt 3.39467 1.5
vt 3.503741 0.75
vt 3.503741 0.75
vt 3.39467 1.5
vt 4.08217 1.5
vt 4.191241 0.75
vt 4.191241 0.75
vt 4.08217 1.5
vt 4.76967 1.5
vt 4.878741 0.75
vt 4.878741 0.75
vt 4.76967 1.5
vt 5.5 1.5
vt 5.5 0.75
vt 0 1.5
vt 0 2.25
vt 0.648952 2.25
vt 0.6446699 1.5
vt 0.6446699 1.5
vt 0.648952 2.25
vt 1.336452 2.25
vt 1.33217 1.5
vt 1.33217 1.5
vt 1.336452 2.25
vt 2.023952 2.25
vt 2.01967 1.5
vt 2.01967 1.5
vt 2.023952 2.25
vt 2.711452 2.25
vt 2.70717 1.5
vt 2.70717 1.5
vt 2.711452 2.25
vt 3.398952 2.25
vt 3.39467 1.5
vt 3.39467 1.5
vt 3.398952 2.25
vt 4.086452 2.25
vt 4.08217 1.5
vt 4.08217 1.5
vt 4.086452 2.25
vt 4.773952 2.25
vt 4.76967 1.5
vt 4.76967 1.5
vt 4.773952 2.25
vt 5.5 2.25
vt 5.5 1.5
vt 0 2.25
vt 0 3
vt 0.7552544 3
vt 0.648952 2.25
vt 0.648952 2.25
vt 0.7552544 3
vt 1.442754 3
vt 1.336452 2.25
vt 1.336452 2.25
vt 1.442754 3
vt 2.130254 3
vt 2.023952 2.25
vt 2.023952 2.25
vt 2.130254 3
vt 2.817754 3
vt 2.711452 2.25
vt 2.711452 2.25
vt 2.817754 3
vt 3.505254 3
vt 3.398952 2.25
vt 3.398952 2.25
vt 3.505254 3
vt 4.192754 3
vt 4.086452 2.25
vt 4.086452 2.25
vt 4.192754 3
vt 4.880254 3
vt 4.773952 2.25
vt 4.773952 2.25
vt 4.880254 3
vt 5.5 3
vt 5.5 2.25
vt 0 3
vt 0 3.75
vt 0.6822394 3.75
vt 0.7552544 3
vt 0.7552544 3
vt 0.6822394 3.75
vt 1.369739 3.75
vt 1.442754 3
vt 1.442754 3
vt 1.369739 3.75
vt 2.057239 3.75
vt 2.130254 3
vt 2.130254 3
vt 2.057239 3.75
vt 2.744739 3.75
vt 2.817754 3
vt 2.817754 3
vt 2.744739 3.75
vt 3.432239 3.75
vt 3.505254 3
vt 3.505254 3
vt 3.432239 3.75
vt 4.119739 3.75
vt 4.192754 3
vt 4.192754 3
vt 4.119739 3.75
vt 4.807239 3.75
vt 4.880254 3
vt 4.880254 3
vt 4.807239 3.75
vt 5.5 3.75
vt 5.5 3
vt 0 3.75
vt 0 4.5
vt 0.623147 4.5
vt 0.6822394 3.75
vt 0.6822394 3.75
vt 0.623147 4.5
vt 1.310647 4.5
vt 1.369739 3.75
vt 1.369739 3.75
vt 1.310647 4.5
vt 1.998147 4.5
vt 2.057239 3.75
vt 2.057239 3.75
vt 1.998147 4.5
vt 2.685647 4.5
vt 2.744739 3.75
vt 2.744739 3.75
vt 2.685647 4.5
vt 3.373147 4.5
vt 3.432239 3.75
vt 3.432239 3.75
vt 3.373147 4.5
vt 4.060647 4.5
vt 4.119739 3.75
vt 4.119739 3.75
vt 4.060647 4.5
vt 4.748147 4.5
vt 4.807239 3.75
vt 4.807239 3.75
vt 4.748147 4.5
vt 5.5 4.5
vt 5.5 3.75
vt 0 4.5
vt 0 5.25
vt 0.7343699 5.25
vt 0.623147 4.5
vt 0.623147 4.5
vt 0.7343699 5.25
vt 1.42187 5.25
vt 1.310647 4.5
vt 1.310647 4.5
vt 1.42187 5.25
vt 2.10937 5.25
vt 1.998147 4.5
vt 1.998147 4.5
vt 2.10937 5.25
vt 2.79687 5.25
vt 2.685647 4.5
vt 2.685647 4.5
vt 2.79687 5.25
vt 3.48437 5.25
vt 3.373147 4.5
vt 3.373147 4.5
vt 3.48437 5.25
vt 4.17187 5.25
vt 4.060647 4.5
vt 4.060647 4.5
vt 4.17187 5.25
vt 4.85937 5.25
vt 4.748147 4.5
vt 4.748147 4.5
vt 4.85937 5.25
vt 5.5 5.25
vt 5.5 4.5
vt 0 5.25
vt 0 6
vt 0.7215479 6
vt 0.7343699 5.25
vt 0.7343699 5.25
vt 0.7215479 6
vt 1.409048 6
vt 1.42187 5.25
vt 1.42187 5.25
vt 1.409048 6
vt 2.096548 6
vt 2.10937 5.25
vt 2.10937 5.25
vt 2.096548 6
vt 2.784048 6
vt 2.79687 5.25
vt 2.79687 5.25
vt 2.784048 6
vt 3.471548 6
vt 3.48437 5.25
vt 3.48437 5.25
vt 3.471548 6
vt 4.159048 6
vt 4.17187 5.25
vt 4.17187 5.25
vt 4.159048 6
vt 4.846548 6
vt 4.85937 5.25
vt 4.85937 5.25
vt 4.846548 6
vt 5.5 6
vt 5.5 5.25
vt 0 6
vt 0 6.75
vt 0.6186154 6.75
vt 0.7215479 6
vt 0.7215479 6
vt 0.6186154 6.75
vt 1.306115 6.75
vt 1.409048 6
vt 1.409048 6
vt 1.306115 6.75
vt 1.993615 6.75
vt 2.096548 6
vt 2.096548 6
vt 1.993615 6.75
vt 2.681115 6.75
vt 2.784048 6
vt 2.784048 6
vt 2.681115 6.75
vt 3.368615 6.75
vt 3.471548 6
vt 3.471548 6
vt 3.368615 6.75
vt 4.056115 6.75
vt 4.159048 6
vt 4.159048 6
vt 4.056115 6.75
vt 4.743615 6.75
vt 4.846548 6
vt 4.846548 6
vt 4.743615 6.75
vt 5.5 6.75
vt 5.5 6
vt 0 6.75
vt 0 7.5
vt 0.6875 7.5
vt 0.6186154 6.75
vt 0.6186154 6.75
vt 0.6875 7.5
vt 1.375 7.5
vt 1.306115 6.75
vt 1.306115 6.75
vt 1.375 7.5
vt 2.0625 7.5
vt 1.993615 6.75
vt 1.993615 6.75
vt 2.0625 7.5
vt 2.75 7.5
vt 2.681115 6.75
vt 2.681115 6.75
vt 2.75 7.5
vt 3.4375 7.5
vt 3.368615 6.75
vt 3.368615 6.75
vt 3.4375 7.5
vt 4.125 7.5
vt 4.056115 6.75
vt 4.056115 6.75
vt 4.125 7.5
vt 4.8125 7.5
vt 4.743615 6.75
vt 4.743615 6.75
vt 4.8125 7.5
vt 5.5 7.5
vt 5.5 6.75
f 1/1 2/2 3/3 4/4
f 5/5 6/6 7/7 8/8
f 9/9 10/10 11/11 12/12
f 13/13 14/14 15/15 16/16
f 17/17 18/18 19/19 20/20
f 21/21 22/22 23/23 24/24
f 25/25 26/26 27/27 28/28
f 29/29 30/30 31/31 32/32
f 33/33 34/34 35/35 36/36
f 37/37 38/38 39/39 40/40
f 41/41 42/42 43/43 44/44
f 45/45 46/46 47/47 48/48
f 49/49 50/50 51/51 52/52
f 53/53 54/54 55/55 56/56
f 57/57 58/58 59/59 60/60
f 61/61 62/62 63/63 64/64
f 65/65 66/66 67/67 68/68
f 69/69 70/70 71/71 72/72
f 73/73 74/74 75/75 76/76
f 77/77 78/78 79/79 80/80
f 81/81 82/82 83/83 84/84
f 85/85 86/86 87/87 88/88
f 89/89 90/90 91/91 92/92
f 93/93 94/94 95/95 96/96
f 97/97 98/98 99/99 100/100
f 101/101 102/102 103/103 104/104
f 105/105 106/106 107/107 108/108
f 109/109 110/110 111/111 112/112
f 113/113 114/114 115/115 116/116
f 117/117 118/118 119/119 120/120
f 121/121 122/122 123/123 124/124
f 125/125 126/126 127/127 128/128
f 129/129 130/130 131/131 132/132
f 133/133 134/134 135/135 136/136
f 137/137 138/138 139/139 140/140
f 141/141 142/142 143/143 144/144
f 145/145 146/146 147/147 148/148
f 149/149 150/150 151/151 152/152
f 153/153 154/154 155/155 156/156
f 157/157 158/158 159/159 160/160
f 161/161 162/162 163/163 164/164
f 165/165 166/166 167/167 168/168
f 169/169 170/170 171/171 172/172
f 173/173 174/174 175/175 176/176
f 177/177 178/178 179/179 180/180
f 181/181 182/182 183/183 184/184
f 185/185 186/186 187/187 188/188
f 189/189 190/190 191/191 192/192
f 193/193 194/194 195/195 196/196
f 197/197 198/198 199/199 200/200
f 201/201 202/202 203/203 204/204
f 205/205 206/206 207/207 208/208
f 209/209 210/210 211/211 212/212
f 213/213 214/214 215/215 216/216
f 217/217 218/218 219/219 220/220
f 221/221 222/222 223/223 224/224
f 225/225 226/226 227/227 228/228
f 229/229 230/230 231/231 232/232
f 233/233 234/234 235/235 236/236
f 237/237 238/238 239/239 240/240
f 241/241 242/242 243/243 244/244
f 245/245 246/246 247/247 248/248
f 249/249 250/250 251/251 252/252
f 253/253 254/254 255/255 256/256
f 257/257 258/258 259/259 260/260
f 261/261 262/262 263/263 264/264
f 265/265 266/266 267/267 268/268
f 269/269 270/270 271/271 272/272
f 273/273 274/274 275/275 276/276
f 277/277 278/278 279/279 280/280
f 281/281 282/282 283/283 284/284
f 285/285 286/286 287/287 288/288
f 289/289 290/290 291/291 292/292
f 293/293 294/294 295/295 296/296
f 297/297 298/298 299/299 300/300
f 301/301 302/302 303/303 304/304
f 305/305 306/306 307/307 308/308
f 309/309 310/310 311/311 312/312
f 313/313 314/314 315/315 316/316
f 317/317 318/318 319/319 320/320
