# DarkLantern64 authored night_facade; metres, Y up. OBJ UVs are source data.
v -0.5 -0.5 0.5
v -0.25 -0.5 0.5
v -0.25 0 0.5
v -0.5 0 0.5
v -0.25 -0.5 -0.5
v -0.5 -0.5 -0.5
v -0.5 0 -0.5
v -0.25 0 -0.5
v -0.25 -0.5 0.5
v 0 -0.5 0.5
v 0 0 0.5
v -0.25 0 0.5
v 0 -0.5 -0.5
v -0.25 -0.5 -0.5
v -0.25 0 -0.5
v 0 0 -0.5
v 0 -0.5 0.5
v 0.25 -0.5 0.5
v 0.25 0 0.5
v 0 0 0.5
v 0.25 -0.5 -0.5
v 0 -0.5 -0.5
v 0 0 -0.5
v 0.25 0 -0.5
v 0.25 -0.5 0.5
v 0.5 -0.5 0.5
v 0.5 0 0.5
v 0.25 0 0.5
v 0.5 -0.5 -0.5
v 0.25 -0.5 -0.5
v 0.25 0 -0.5
v 0.5 0 -0.5
v -0.5 0 0.5
v -0.25 0 0.5
v -0.25 0.5 0.5
v -0.5 0.5 0.5
v -0.25 0 -0.5
v -0.5 0 -0.5
v -0.5 0.5 -0.5
v -0.25 0.5 -0.5
v -0.25 0 0.5
v 0 0 0.5
v 0 0.5 0.5
v -0.25 0.5 0.5
v 0 0 -0.5
v -0.25 0 -0.5
v -0.25 0.5 -0.5
v 0 0.5 -0.5
v 0 0 0.5
v 0.25 0 0.5
v 0.25 0.5 0.5
v 0 0.5 0.5
v 0.25 0 -0.5
v 0 0 -0.5
v 0 0.5 -0.5
v 0.25 0.5 -0.5
v 0.25 0 0.5
v 0.5 0 0.5
v 0.5 0.5 0.5
v 0.25 0.5 0.5
v 0.5 0 -0.5
v 0.25 0 -0.5
v 0.25 0.5 -0.5
v 0.5 0.5 -0.5
v -0.5 -0.5 -0.5
v -0.5 -0.5 0.5
v -0.5 0.5 0.5
v -0.5 0.5 -0.5
v 0.5 -0.5 -0.5
v 0.5 0.5 -0.5
v 0.5 0.5 0.5
v 0.5 -0.5 0.5
v -0.5 0.5 -0.5
v -0.5 0.5 0.5
v 0.5 0.5 0.5
v 0.5 0.5 -0.5
v -0.5 -0.5 -0.5
v 0.5 -0.5 -0.5
v 0.5 -0.5 0.5
v -0.5 -0.5 0.5
vt 0 0
vt 1 0
vt 1 1
vt 0 1
vt 0 0
vt 1 0
vt 1 1
vt 0 1
vt 1 0
vt 2 0
vt 2 1
vt 1 1
vt 1 0
vt 2 0
vt 2 1
vt 1 1
vt 2 0
vt 3 0
vt 3 1
vt 2 1
vt 2 0
vt 3 0
vt 3 1
vt 2 1
vt 3 0
vt 4 0
vt 4 1
vt 3 1
vt 3 0
vt 4 0
vt 4 1
vt 3 1
vt 0 1
vt 1 1
vt 1 2
vt 0 2
vt 0 1
vt 1 1
vt 1 2
vt 0 2
vt 1 1
vt 2 1
vt 2 2
vt 1 2
vt 1 1
vt 2 1
vt 2 2
vt 1 2
vt 2 1
vt 3 1
vt 3 2
vt 2 2
vt 2 1
vt 3 1
vt 3 2
vt 2 2
vt 3 1
vt 4 1
vt 4 2
vt 3 2
vt 3 1
vt 4 1
vt 4 2
vt 3 2
vt 0 0
vt 1 0
vt 1 1
vt 0 1
vt 0 0
vt 1 0
vt 1 1
vt 0 1
vt 0 0
vt 1 0
vt 1 1
vt 0 1
vt 0 0
vt 1 0
vt 1 1
vt 0 1
f 1/1 2/2 3/3 4/4
f 9/9 10/10 11/11 12/12
f 17/17 18/18 19/19 20/20
f 25/25 26/26 27/27 28/28
f 33/33 34/34 35/35 36/36
f 41/41 42/42 43/43 44/44
f 49/49 50/50 51/51 52/52
f 57/57 58/58 59/59 60/60
f 29/29 6/6 39/39 64/64
f 65/65 66/66 67/67 68/68
f 69/69 70/70 71/71 72/72
f 73/73 74/74 75/75 76/76
f 77/77 78/78 79/79 80/80
