# DarkLantern64 low-poly Sponza interpretation; metres, Y-up.
o aisle-wall-north-2
v -3.7 -5.25 0.1
v 3.7 -5.25 0.1
v 3.7 -2.25 0.1
v -3.7 -2.25 0.1
v 0 -3.75 0.1
v 3.7 -0.15 0.1
v -3.7 -0.15 0.1
v 0 -1.2 0.1
v -3.7 0.05 0.1
v 3.7 0.05 0.1
v 3.7 3.15 0.1
v -3.7 3.15 0.1
v 0 1.6 0.1
v 3.7 5.25 0.1
v -3.7 5.25 0.1
v 0 4.2 0.1
vt 2 0
vt 5.7 0
vt 5.7 1.5
vt 2 1.5
vt 3.85 0.75
vt 5.7 2.55
vt 2 2.55
vt 3.85 2.025
vt 2 2.65
vt 5.7 2.65
vt 5.7 4.2
vt 2 4.2
vt 3.85 3.425
vt 5.7 5.25
vt 2 5.25
vt 3.85 4.725
vn 0 0 1
vn 0 0 1
vn 0 0 1
vn 0 0 1
vn 0 0 1
vn 0 0 1
vn 0 0 1
vn 0 0 1
vn 0 0 1
vn 0 0 1
vn 0 0 1
vn 0 0 1
vn 0 0 1
vn 0 0 1
vn 0 0 1
vn 0 0 1
f 5/5/5 1/1/1 2/2/2
f 5/5/5 2/2/2 3/3/3
f 5/5/5 3/3/3 4/4/4
f 5/5/5 4/4/4 1/1/1
f 8/8/8 4/4/4 3/3/3
f 8/8/8 3/3/3 6/6/6
f 8/8/8 6/6/6 7/7/7
f 8/8/8 7/7/7 4/4/4
f 13/13/13 9/9/9 10/10/10
f 13/13/13 10/10/10 11/11/11
f 13/13/13 11/11/11 12/12/12
f 13/13/13 12/12/12 9/9/9
f 16/16/16 12/12/12 11/11/11
f 16/16/16 11/11/11 14/14/14
f 16/16/16 14/14/14 15/15/15
f 16/16/16 15/15/15 12/12/12
