# DarkLantern64 low-poly Sponza interpretation; metres, Y-up.
o ceiling-south
v -8 0 -1.61
v -6 0 -1.61
v -6 0 1.61
v -8 0 1.61
v -4 0 -1.61
v -4 0 1.61
v -2 0 -1.61
v -2 0 1.61
v 0 0 -1.61
v 0 0 1.61
v 2 0 -1.61
v 2 0 1.61
v 4 0 -1.61
v 4 0 1.61
v 6 0 -1.61
v 6 0 1.61
v 8 0 -1.61
v 8 0 1.61
vt -4 1.39
vt -3 1.39
vt -3 3
vt -4 3
vt -2 1.39
vt -2 3
vt -1 1.39
vt -1 3
vt 0 1.39
vt 0 3
vt 1 1.39
vt 1 3
vt 2 1.39
vt 2 3
vt 3 1.39
vt 3 3
vt 4 1.39
vt 4 3
vn 0 -1 0
vn 0 -1 0
vn 0 -1 0
vn 0 -1 0
vn 0 -1 0
vn 0 -1 0
vn 0 -1 0
vn 0 -1 0
vn 0 -1 0
vn 0 -1 0
vn 0 -1 0
vn 0 -1 0
vn 0 -1 0
vn 0 -1 0
vn 0 -1 0
vn 0 -1 0
vn 0 -1 0
vn 0 -1 0
f 1/1/1 2/2/2 3/3/3
f 1/1/1 3/3/3 4/4/4
f 2/2/2 5/5/5 6/6/6
f 2/2/2 6/6/6 3/3/3
f 5/5/5 7/7/7 8/8/8
f 5/5/5 8/8/8 6/6/6
f 7/7/7 9/9/9 10/10/10
f 7/7/7 10/10/10 8/8/8
f 9/9/9 11/11/11 12/12/12
f 9/9/9 12/12/12 10/10/10
f 11/11/11 13/13/13 14/14/14
f 11/11/11 14/14/14 12/12/12
f 13/13/13 15/15/15 16/16/16
f 13/13/13 16/16/16 14/14/14
f 15/15/15 17/17/17 18/18/18
f 15/15/15 18/18/18 16/16/16
