# DarkLantern64 low-poly Sponza interpretation; metres, Y-up.
o ceiling-west
v -1.7 0 -6
v 0 0 -6
v 0 0 0
v -1.7 0 0
v 0 0 6
v -1.7 0 6
v 1.7 0 -6
v 1.7 0 0
v 1.7 0 6
vt -5.7 -3
vt -4.85 -3
vt -4.85 0
vt -5.7 0
vt -4.85 3
vt -5.7 3
vt -4 -3
vt -4 0
vt -4 3
vn 0 -1 0
vn 0 -1 0
vn 0 -1 0
vn 0 -1 0
vn 0 -1 0
vn 0 -1 0
vn 0 -1 0
vn 0 -1 0
vn 0 -1 0
f 1/1/1 2/2/2 3/3/3
f 1/1/1 3/3/3 4/4/4
f 4/4/4 3/3/3 5/5/5
f 4/4/4 5/5/5 6/6/6
f 2/2/2 7/7/7 8/8/8
f 2/2/2 8/8/8 3/3/3
f 3/3/3 8/8/8 9/9/9
f 3/3/3 9/9/9 5/5/5
