# DarkLantern64 low-poly Sponza interpretation; metres, Y-up.
o end-wall-west
v 0.1 -5.25 -6
v 0.1 5.25 -6
v 0.1 5.25 -5.2
v 0.1 -5.25 -5.2
v 0.1 -5.25 -2.8
v 0.1 5.25 -2.8
v 0.1 5.25 -2.5
v 0.1 -5.25 -2.5
v 0.1 -5.25 2.5
v 0.1 5.25 2.5
v 0.1 5.25 6
v 0.1 -5.25 6
v 0.1 -0.65 -2.5
v 0.1 -0.65 2.5
v 0.1 2.15 -5.2
v 0.1 2.15 -2.8
vt -3 0
vt -3 5.25
vt -2.6 5.25
vt -2.6 0
vt -1.4 0
vt -1.4 5.25
vt -1.25 5.25
vt -1.25 0
vt 1.25 0
vt 1.25 5.25
vt 3 5.25
vt 3 0
vt -1.25 2.3
vt 1.25 2.3
vt -2.6 3.7
vt -1.4 3.7
vn 1 0 0
vn 1 0 0
vn 1 0 0
vn 1 0 0
vn 1 0 0
vn 1 0 0
vn 1 0 0
vn 1 0 0
vn 1 0 0
vn 1 0 0
vn 1 0 0
vn 1 0 0
vn 1 0 0
vn 1 0 0
vn 1 0 0
vn 1 0 0
f 1/1/1 2/2/2 3/3/3
f 1/1/1 3/3/3 4/4/4
f 5/5/5 6/6/6 7/7/7
f 5/5/5 7/7/7 8/8/8
f 9/9/9 10/10/10 11/11/11
f 9/9/9 11/11/11 12/12/12
f 13/13/13 7/7/7 10/10/10
f 13/13/13 10/10/10 14/14/14
f 15/15/15 3/3/3 6/6/6
f 15/15/15 6/6/6 16/16/16
