# DarkLantern64 low-poly Sponza interpretation; metres, Y-up.
o entry-floor
v -4.05 0 0
v -1.35 0 0
v -1.35 0 -1.25
v -4.05 0 -1.25
v -4.05 0 1.25
v -1.35 0 1.25
v 1.35 0 0
v 1.35 0 -1.25
v 1.35 0 1.25
v 4.05 0 0
v 4.05 0 -1.25
v 4.05 0 1.25
vt 5.7 0
vt 7.05 0
vt 7.05 -0.625
vt 5.7 -0.625
vt 5.7 0.625
vt 7.05 0.625
vt 8.4 0
vt 8.4 -0.625
vt 8.4 0.625
vt 9.75 0
vt 9.75 -0.625
vt 9.75 0.625
vn 0 1 0
vn 0 1 0
vn 0 1 0
vn 0 1 0
vn 0 1 0
vn 0 1 0
vn 0 1 0
vn 0 1 0
vn 0 1 0
vn 0 1 0
vn 0 1 0
vn 0 1 0
f 1/1/1 2/2/2 3/3/3
f 1/1/1 3/3/3 4/4/4
f 5/5/5 6/6/6 2/2/2
f 5/5/5 2/2/2 1/1/1
f 2/2/2 7/7/7 8/8/8
f 2/2/2 8/8/8 3/3/3
f 6/6/6 9/9/9 7/7/7
f 6/6/6 7/7/7 2/2/2
f 7/7/7 10/10/10 11/11/11
f 7/7/7 11/11/11 8/8/8
f 9/9/9 12/12/12 10/10/10
f 9/9/9 10/10/10 7/7/7
