# DarkLantern64 low-poly Sponza interpretation; metres, Y-up.
o gallery-south-1
v -2 0 0
v 0 0 0
v 0 0 -1.61
v -2 0 -1.61
v -2 0 1.61
v 0 0 1.61
v 2 0 0
v 2 0 -1.61
v 2 0 1.61
vt -2 2.195
vt -1 2.195
vt -1 1.39
vt -2 1.39
vt -2 3
vt -1 3
vt 0 2.195
vt 0 1.39
vt 0 3
vn 0 1 0
vn 0 1 0
vn 0 1 0
vn 0 1 0
vn 0 1 0
vn 0 1 0
vn 0 1 0
vn 0 1 0
vn 0 1 0
f 1/1/1 2/2/2 3/3/3
f 1/1/1 3/3/3 4/4/4
f 5/5/5 6/6/6 2/2/2
f 5/5/5 2/2/2 1/1/1
f 2/2/2 7/7/7 8/8/8
f 2/2/2 8/8/8 3/3/3
f 6/6/6 9/9/9 7/7/7
f 6/6/6 7/7/7 2/2/2
