# DarkLantern64 low-poly Sponza interpretation; metres, Y-up.
o ground-floor-3
v -2 0 -3
v 0 0 -3
v 0 0 -6
v -2 0 -6
v -2 0 0
v 0 0 0
v -2 0 3
v 0 0 3
v -2 0 6
v 0 0 6
v 2 0 -3
v 2 0 -6
v 2 0 0
v 2 0 3
v 2 0 6
vt 0 -1.5
vt 1 -1.5
vt 1 -3
vt 0 -3
vt 0 0
vt 1 0
vt 0 1.5
vt 1 1.5
vt 0 3
vt 1 3
vt 2 -1.5
vt 2 -3
vt 2 0
vt 2 1.5
vt 2 3
vn 0 1 0
vn 0 1 0
vn 0 1 0
vn 0 1 0
vn 0 1 0
vn 0 1 0
vn 0 1 0
vn 0 1 0
vn 0 1 0
vn 0 1 0
vn 0 1 0
vn 0 1 0
vn 0 1 0
vn 0 1 0
vn 0 1 0
f 1/1/1 2/2/2 3/3/3
f 1/1/1 3/3/3 4/4/4
f 5/5/5 6/6/6 2/2/2
f 5/5/5 2/2/2 1/1/1
f 7/7/7 8/8/8 6/6/6
f 7/7/7 6/6/6 5/5/5
f 9/9/9 10/10/10 8/8/8
f 9/9/9 8/8/8 7/7/7
f 2/2/2 11/11/11 12/12/12
f 2/2/2 12/12/12 3/3/3
f 6/6/6 13/13/13 11/11/11
f 6/6/6 11/11/11 2/2/2
f 8/8/8 14/14/14 13/13/13
f 8/8/8 13/13/13 6/6/6
f 10/10/10 15/15/15 14/14/14
f 10/10/10 14/14/14 8/8/8
