# DarkLantern64 low-poly Sponza interpretation; metres, Y-up.
o ground-column
v 0.4 0.2 0
v 0.2 0.2 0.3464102
v 0.22 0 0.3810512
v 0.44 0 0
v -0.2 0.2 0.3464102
v -0.22 0 0.3810512
v -0.4 0.2 0
v -0.44 0 0
v -0.2 0.2 -0.3464102
v -0.22 0 -0.3810512
v 0.2 0.2 -0.3464102
v 0.22 0 -0.3810512
v 0.4 0.2 0
v 0.44 0 0
v 0.39 2.83 0
v 0.195 2.83 0.3377499
v -0.195 2.83 0.3377499
v -0.39 2.83 0
v -0.195 2.83 -0.3377499
v 0.195 2.83 -0.3377499
v 0.39 2.83 0
v 0.45 3.05 0
v 0.225 3.05 0.3897114
v -0.225 3.05 0.3897114
v -0.45 3.05 0
v -0.225 3.05 -0.3897114
v 0.225 3.05 -0.3897114
v 0.45 3.05 0
v 0.44 0 0
v 0.22 0 0.3810512
v -0.22 0 0.3810512
v -0.44 0 0
v -0.22 0 -0.3810512
v 0.22 0 -0.3810512
v 0.225 3.05 -0.3897114
v -0.225 3.05 -0.3897114
v -0.45 3.05 0
v -0.225 3.05 0.3897114
v 0.225 3.05 0.3897114
v 0.45 3.05 0
vt 0 0.0655738
vt 0.1666667 0.0655738
vt 0.1666667 0
vt 0 0
vt 0.3333333 0.0655738
vt 0.3333333 0
vt 0.5 0.0655738
vt 0.5 0
vt 0.6666667 0.0655738
vt 0.6666667 0
vt 0.8333333 0.0655738
vt 0.8333333 0
vt 1 0.0655738
vt 1 0
vt 0 0.9278689
vt 0.1666667 0.9278689
vt 0.3333333 0.9278689
vt 0.5 0.9278689
vt 0.6666667 0.9278689
vt 0.8333333 0.9278689
vt 1 0.9278689
vt 0 1
vt 0.1666667 1
vt 0.3333333 1
vt 0.5 1
vt 0.6666667 1
vt 0.8333333 1
vt 1 1
vt 0.22 0
vt 0.11 0
vt -0.11 0
vt -0.22 0
vt -0.11 0
vt 0.11 0
vt 0.1125 1
vt -0.1125 1
vt -0.225 1
vt -0.1125 1
vt 0.1125 1
vt 0.225 1
vn 0.9948482 0.1013762 0
vn 0.4974241 0.1013762 0.8615638
vn 0.4902903 0.1961161 0.8492078
vn 0.9805807 0.1961161 0
vn -0.4974241 0.1013762 0.8615638
vn -0.4902903 0.1961161 0.8492078
vn -0.9948482 0.1013762 0
vn -0.9805807 0.1961161 0
vn -0.4974241 0.1013762 -0.8615638
vn -0.4902903 0.1961161 -0.8492078
vn 0.4974241 0.1013762 -0.8615638
vn 0.4902903 0.1961161 -0.8492078
vn 0.9948482 0.1013762 0
vn 0.9805807 0.1961161 0
vn 0.9910807 -0.1332632 0
vn 0.4955403 -0.1332632 0.8583011
vn -0.4955403 -0.1332632 0.8583011
vn -0.9910807 -0.1332632 0
vn -0.4955403 -0.1332632 -0.8583011
vn 0.4955403 -0.1332632 -0.8583011
vn 0.9910807 -0.1332632 0
vn 0.9647638 -0.2631174 0
vn 0.4823819 -0.2631174 0.83551
vn -0.4823819 -0.2631174 0.83551
vn -0.9647638 -0.2631174 0
vn -0.4823819 -0.2631174 -0.83551
vn 0.4823819 -0.2631174 -0.83551
vn 0.9647638 -0.2631174 0
vn 0 -1 0
vn 0 -1 0
vn 0 -1 0
vn 0 -1 0
vn 0 -1 0
vn 0 -1 0
vn 0 1 0
vn 0 1 0
vn 0 1 0
vn 0 1 0
vn 0 1 0
vn 0 1 0
f 1/1/1 2/2/2 3/3/3
f 1/1/1 3/3/3 4/4/4
f 2/2/2 5/5/5 6/6/6
f 2/2/2 6/6/6 3/3/3
f 5/5/5 7/7/7 8/8/8
f 5/5/5 8/8/8 6/6/6
f 7/7/7 9/9/9 10/10/10
f 7/7/7 10/10/10 8/8/8
f 9/9/9 11/11/11 12/12/12
f 9/9/9 12/12/12 10/10/10
f 11/11/11 13/13/13 14/14/14
f 11/11/11 14/14/14 12/12/12
f 15/15/15 16/16/16 2/2/2
f 15/15/15 2/2/2 1/1/1
f 16/16/16 17/17/17 5/5/5
f 16/16/16 5/5/5 2/2/2
f 17/17/17 18/18/18 7/7/7
f 17/17/17 7/7/7 5/5/5
f 18/18/18 19/19/19 9/9/9
f 18/18/18 9/9/9 7/7/7
f 19/19/19 20/20/20 11/11/11
f 19/19/19 11/11/11 9/9/9
f 20/20/20 21/21/21 13/13/13
f 20/20/20 13/13/13 11/11/11
f 22/22/22 23/23/23 16/16/16
f 22/22/22 16/16/16 15/15/15
f 23/23/23 24/24/24 17/17/17
f 23/23/23 17/17/17 16/16/16
f 24/24/24 25/25/25 18/18/18
f 24/24/24 18/18/18 17/17/17
f 25/25/25 26/26/26 19/19/19
f 25/25/25 19/19/19 18/18/18
f 26/26/26 27/27/27 20/20/20
f 26/26/26 20/20/20 19/19/19
f 27/27/27 28/28/28 21/21/21
f 27/27/27 21/21/21 20/20/20
f 29/29/29 30/30/30 31/31/31
f 29/29/29 31/31/31 32/32/32
f 29/29/29 32/32/32 33/33/33
f 29/29/29 33/33/33 34/34/34
f 35/35/35 36/36/36 37/37/37
f 35/35/35 37/37/37 38/38/38
f 35/35/35 38/38/38 39/39/39
f 35/35/35 39/39/39 40/40/40
