# DarkLantern64 low-poly Sponza interpretation; metres, Y-up.
o ground-arch
v -2 5.1 -0.19
v -1.7320508 5.1 -0.19
v -1.7320508 3.925 -0.19
v -2 3 -0.19
v -2 3 0.19
v -1.7320508 3.925 0.19
v -1.7320508 5.1 0.19
v -2 5.1 0.19
v -1.7320508 3.925 -0.19
v -1.7320508 3.925 0.19
v -2 3 0.19
v -2 3 -0.19
v -1 5.1 -0.19
v -1 4.602147 -0.19
v -1 4.602147 0.19
v -1 5.1 0.19
v -1 4.602147 -0.19
v -1 4.602147 0.19
v -1.7320508 3.925 0.19
v -1.7320508 3.925 -0.19
v 0 5.1 -0.19
v 0 4.85 -0.19
v 0 4.85 0.19
v 0 5.1 0.19
v 0 4.85 -0.19
v 0 4.85 0.19
v -1 4.602147 0.19
v -1 4.602147 -0.19
v 1 5.1 -0.19
v 1 4.602147 -0.19
v 1 4.602147 0.19
v 1 5.1 0.19
v 1 4.602147 -0.19
v 1 4.602147 0.19
v 0 4.85 0.19
v 0 4.85 -0.19
v 1.7320508 5.1 -0.19
v 1.7320508 3.925 -0.19
v 1.7320508 3.925 0.19
v 1.7320508 5.1 0.19
v 1.7320508 3.925 -0.19
v 1.7320508 3.925 0.19
v 1 4.602147 0.19
v 1 4.602147 -0.19
v 2 5.1 -0.19
v 2 3 -0.19
v 2 3 0.19
v 2 5.1 0.19
v 2 3 -0.19
v 2 3 0.19
v 1.7320508 3.925 0.19
v 1.7320508 3.925 -0.19
vt -1 2.55
vt -0.8660254 2.55
vt -0.8660254 1.9625
vt -1 1.5
vt -1 1.5
vt -0.8660254 1.9625
vt -0.8660254 2.55
vt -1 2.55
vt -0.095 1.9625
vt 0.095 1.9625
vt 0.095 1.5
vt -0.095 1.5
vt -0.5 2.55
vt -0.5 2.3010735
vt -0.5 2.3010735
vt -0.5 2.55
vt -0.5 -0.095
vt -0.5 0.095
vt -0.8660254 0.095
vt -0.8660254 -0.095
vt 0 2.55
vt 0 2.425
vt 0 2.425
vt 0 2.55
vt 0 -0.095
vt 0 0.095
vt -0.5 0.095
vt -0.5 -0.095
vt 0.5 2.55
vt 0.5 2.3010735
vt 0.5 2.3010735
vt 0.5 2.55
vt 0.5 -0.095
vt 0.5 0.095
vt 0 0.095
vt 0 -0.095
vt 0.8660254 2.55
vt 0.8660254 1.9625
vt 0.8660254 1.9625
vt 0.8660254 2.55
vt 0.8660254 -0.095
vt 0.8660254 0.095
vt 0.5 0.095
vt 0.5 -0.095
vt 1 2.55
vt 1 1.5
vt 1 1.5
vt 1 2.55
vt -0.095 1.5
vt 0.095 1.5
vt 0.095 1.9625
vt -0.095 1.9625
vn 0 0 -1
vn 0 0 -1
vn 0 0 -1
vn 0 0 -1
vn 0 0 1
vn 0 0 1
vn 0 0 1
vn 0 0 1
vn 0.9605127 -0.2782363 0
vn 0.9605127 -0.2782363 0
vn 0.9605127 -0.2782363 0
vn 0.9605127 -0.2782363 0
vn 0 0 -1
vn 0 0 -1
vn 0 0 1
vn 0 0 1
vn 0.679042 -0.7340994 0
vn 0.679042 -0.7340994 0
vn 0.679042 -0.7340994 0
vn 0.679042 -0.7340994 0
vn 0 0 -1
vn 0 0 -1
vn 0 0 1
vn 0 0 1
vn 0.2405738 -0.9706309 0
vn 0.2405738 -0.9706309 0
vn 0.2405738 -0.9706309 0
vn 0.2405738 -0.9706309 0
vn 0 0 -1
vn 0 0 -1
vn 0 0 1
vn 0 0 1
vn -0.2405738 -0.9706309 0
vn -0.2405738 -0.9706309 0
vn -0.2405738 -0.9706309 0
vn -0.2405738 -0.9706309 0
vn 0 0 -1
vn 0 0 -1
vn 0 0 1
vn 0 0 1
vn -0.679042 -0.7340994 0
vn -0.679042 -0.7340994 0
vn -0.679042 -0.7340994 0
vn -0.679042 -0.7340994 0
vn 0 0 -1
vn 0 0 -1
vn 0 0 1
vn 0 0 1
vn -0.9605127 -0.2782363 0
vn -0.9605127 -0.2782363 0
vn -0.9605127 -0.2782363 0
vn -0.9605127 -0.2782363 0
f 1/1/1 2/2/2 3/3/3
f 1/1/1 3/3/3 4/4/4
f 5/5/5 6/6/6 7/7/7
f 5/5/5 7/7/7 8/8/8
f 9/9/9 10/10/10 11/11/11
f 9/9/9 11/11/11 12/12/12
f 2/2/2 13/13/13 14/14/14
f 2/2/2 14/14/14 3/3/3
f 6/6/6 15/15/15 16/16/16
f 6/6/6 16/16/16 7/7/7
f 17/17/17 18/18/18 19/19/19
f 17/17/17 19/19/19 20/20/20
f 13/13/13 21/21/21 22/22/22
f 13/13/13 22/22/22 14/14/14
f 15/15/15 23/23/23 24/24/24
f 15/15/15 24/24/24 16/16/16
f 25/25/25 26/26/26 27/27/27
f 25/25/25 27/27/27 28/28/28
f 21/21/21 29/29/29 30/30/30
f 21/21/21 30/30/30 22/22/22
f 23/23/23 31/31/31 32/32/32
f 23/23/23 32/32/32 24/24/24
f 33/33/33 34/34/34 35/35/35
f 33/33/33 35/35/35 36/36/36
f 29/29/29 37/37/37 38/38/38
f 29/29/29 38/38/38 30/30/30
f 31/31/31 39/39/39 40/40/40
f 31/31/31 40/40/40 32/32/32
f 41/41/41 42/42/42 43/43/43
f 41/41/41 43/43/43 44/44/44
f 37/37/37 45/45/45 46/46/46
f 37/37/37 46/46/46 38/38/38
f 39/39/39 47/47/47 48/48/48
f 39/39/39 48/48/48 40/40/40
f 49/49/49 50/50/50 51/51/51
f 49/49/49 51/51/51 52/52/52
