# DarkLantern64 low-poly Sponza interpretation; metres, Y-up.
o niche-floor
v -2.05 0 0
v -0.6833333 0 0
v -0.6833333 0 -2.5
v -2.05 0 -2.5
v -2.05 0 2.5
v -0.6833333 0 2.5
v 0.6833333 0 0
v 0.6833333 0 -2.5
v 0.6833333 0 2.5
v 2.05 0 0
v 2.05 0 -2.5
v 2.05 0 2.5
vt -7.75 0
vt -7.0666667 0
vt -7.0666667 -1.25
vt -7.75 -1.25
vt -7.75 1.25
vt -7.0666667 1.25
vt -6.3833333 0
vt -6.3833333 -1.25
vt -6.3833333 1.25
vt -5.7 0
vt -5.7 -1.25
vt -5.7 1.25
vn 0 1 0
vn 0 1 0
vn 0 1 0
vn 0 1 0
vn 0 1 0
vn 0 1 0
vn 0 1 0
vn 0 1 0
vn 0 1 0
vn 0 1 0
vn 0 1 0
vn 0 1 0
f 1/1/1 2/2/2 3/3/3
f 1/1/1 3/3/3 4/4/4
f 5/5/5 6/6/6 2/2/2
f 5/5/5 2/2/2 1/1/1
f 2/2/2 7/7/7 8/8/8
f 2/2/2 8/8/8 3/3/3
f 6/6/6 9/9/9 7/7/7
f 6/6/6 7/7/7 2/2/2
f 7/7/7 10/10/10 11/11/11
f 7/7/7 11/11/11 8/8/8
f 9/9/9 12/12/12 10/10/10
f 9/9/9 10/10/10 7/7/7
