# DarkLantern64 low-poly Sponza interpretation; metres, Y-up.
o niche-shell
v -2.05 -2.45 -2.4
v 2.05 -2.45 -2.4
v 2.05 2.45 -2.4
v -2.05 2.45 -2.4
v -2.05 2.45 2.4
v 2.05 2.45 2.4
v 2.05 -2.45 2.4
v -2.05 -2.45 2.4
v -1.95 -2.45 -2.5
v -1.95 2.45 -2.5
v -1.95 2.45 2.5
v -1.95 -2.45 2.5
v -2.05 2.45 -2.5
v 2.05 2.45 -2.5
v 2.05 2.45 2.5
v -2.05 2.45 2.5
vt -7.75 0
vt -5.7 0
vt -5.7 2.45
vt -7.75 2.45
vt -7.75 2.45
vt -5.7 2.45
vt -5.7 0
vt -7.75 0
vt -1.25 0
vt -1.25 2.45
vt 1.25 2.45
vt 1.25 0
vt -7.75 -1.25
vt -5.7 -1.25
vt -5.7 1.25
vt -7.75 1.25
vn 0 0 1
vn 0 0 1
vn 0 0 1
vn 0 0 1
vn 0 0 -1
vn 0 0 -1
vn 0 0 -1
vn 0 0 -1
vn 1 0 0
vn 1 0 0
vn 1 0 0
vn 1 0 0
vn 0 -1 0
vn 0 -1 0
vn 0 -1 0
vn 0 -1 0
f 1/1/1 2/2/2 3/3/3
f 1/1/1 3/3/3 4/4/4
f 5/5/5 6/6/6 7/7/7
f 5/5/5 7/7/7 8/8/8
f 9/9/9 10/10/10 11/11/11
f 9/9/9 11/11/11 12/12/12
f 13/13/13 14/14/14 15/15/15
f 13/13/13 15/15/15 16/16/16
