# DarkLantern64 low-poly Sponza interpretation; metres, Y-up.
o parapet-east
v -0.13 -0.4 2.78
v -0.13 0.4 2.78
v -0.13 0.4 -2.78
v -0.13 -0.4 -2.78
v -0.13 0.4 -2.78
v 0.13 0.4 -2.78
v 0.13 -0.4 -2.78
v -0.13 -0.4 -2.78
v 0.13 0.4 -2.78
v 0.13 0.4 2.78
v 0.13 -0.4 2.78
v 0.13 -0.4 -2.78
v -0.13 0.4 2.78
v 0.13 0.4 2.78
v 0.13 0.4 -2.78
v -0.13 0.4 -2.78
v 0.13 -0.4 2.78
v 0.13 0.4 2.78
v -0.13 0.4 2.78
v -0.13 -0.4 2.78
vt 1.39 0
vt 1.39 1
vt -1.39 1
vt -1.39 0
vt 3.885 1
vt 4.015 1
vt 4.015 0
vt 3.885 0
vt -1.39 1
vt 1.39 1
vt 1.39 0
vt -1.39 0
vt 3.885 1
vt 4.015 1
vt 4.015 1
vt 3.885 1
vt 4.015 0
vt 4.015 1
vt 3.885 1
vt 3.885 0
vn -1 0 0
vn -1 0 0
vn -1 0 0
vn -1 0 0
vn 0 0 -1
vn 0 0 -1
vn 0 0 -1
vn 0 0 -1
vn 1 0 0
vn 1 0 0
vn 1 0 0
vn 1 0 0
vn 0 1 0
vn 0 1 0
vn 0 1 0
vn 0 1 0
vn 0 0 1
vn 0 0 1
vn 0 0 1
vn 0 0 1
f 1/1/1 2/2/2 3/3/3
f 1/1/1 3/3/3 4/4/4
f 5/5/5 6/6/6 7/7/7
f 5/5/5 7/7/7 8/8/8
f 9/9/9 10/10/10 11/11/11
f 9/9/9 11/11/11 12/12/12
f 13/13/13 14/14/14 15/15/15
f 13/13/13 15/15/15 16/16/16
f 17/17/17 18/18/18 19/19/19
f 17/17/17 19/19/19 20/20/20
