# DarkLantern64 low-poly Sponza interpretation; metres, Y-up.
o roof-north-1
v -4 -0.8 0
v 4 -0.8 0
v 4 1.3 -1.9
v -4 1.3 -1.9
v -4 1.3 -1.9
v 4 1.3 -1.9
v 4 0 -3.7
v -4 0 -3.7
v -4 -0.95 0
v 4 -0.95 0
v 4 -0.95 0.32
v -4 -0.95 0.32
v -4 -0.95 0.32
v 4 -0.95 0.32
v 4 -0.65 0.32
v -4 -0.65 0.32
vt 0 7.85
vt 4 7.85
vt 4 8.9
vt 0 8.9
vt 0 -2.5
vt 4 -2.5
vt 4 -3.4
vt 0 -3.4
vt 0 -1.55
vt 4 -1.55
vt 4 -1.39
vt 0 -1.39
vt 0 7.775
vt 4 7.775
vt 4 7.925
vt 0 7.925
vn 0 0.6709133 0.7415358
vn 0 0.6709133 0.7415358
vn 0 0.6709133 0.7415358
vn 0 0.6709133 0.7415358
vn 0 0.8106792 -0.5854906
vn 0 0.8106792 -0.5854906
vn 0 0.8106792 -0.5854906
vn 0 0.8106792 -0.5854906
vn 0 -1 0
vn 0 -1 0
vn 0 -1 0
vn 0 -1 0
vn 0 0 1
vn 0 0 1
vn 0 0 1
vn 0 0 1
f 1/1/1 2/2/2 3/3/3
f 1/1/1 3/3/3 4/4/4
f 5/5/5 6/6/6 7/7/7
f 5/5/5 7/7/7 8/8/8
f 9/9/9 10/10/10 11/11/11
f 9/9/9 11/11/11 12/12/12
f 13/13/13 14/14/14 15/15/15
f 13/13/13 15/15/15 16/16/16
