# DarkLantern64 low-poly Sponza interpretation; metres, Y-up.
o roof-west
v 0 -0.8 -3.1
v -3.4 0.7 -3.1
v -3.4 0.7 3.1
v 0 -0.8 3.1
v 0 -0.95 -3.1
v 0.32 -0.95 -3.1
v 0.32 -0.95 3.1
v 0 -0.95 3.1
v 0.32 -0.95 -3.1
v 0.32 -0.65 -3.1
v 0.32 -0.65 3.1
v 0.32 -0.95 3.1
vt -4 -1.55
vt -5.7 -1.55
vt -5.7 1.55
vt -4 1.55
vt -4 -1.55
vt -3.84 -1.55
vt -3.84 1.55
vt -4 1.55
vt -1.55 7.775
vt -1.55 7.925
vt 1.55 7.925
vt 1.55 7.775
vn 0.4036402 0.9149178 0
vn 0.4036402 0.9149178 0
vn 0.4036402 0.9149178 0
vn 0.4036402 0.9149178 0
vn 0 -1 0
vn 0 -1 0
vn 0 -1 0
vn 0 -1 0
vn 1 0 0
vn 1 0 0
vn 1 0 0
vn 1 0 0
f 1/1/1 2/2/2 3/3/3
f 1/1/1 3/3/3 4/4/4
f 5/5/5 6/6/6 7/7/7
f 5/5/5 7/7/7 8/8/8
f 9/9/9 10/10/10 11/11/11
f 9/9/9 11/11/11 12/12/12
