# DarkLantern64 low-poly Sponza interpretation; metres, Y-up.
o stair-shell-east
v -2.25 -3.8 -1.1
v 2.25 -3.8 -1.1
v 2.25 3.8 -1.1
v -2.25 3.8 -1.1
v -2.25 3.8 1.1
v 2.25 3.8 1.1
v 2.25 -3.8 1.1
v -2.25 -3.8 1.1
v 2.25 -3.8 1.2
v 2.25 3.8 1.2
v 2.25 3.8 -1.2
v 2.25 -3.8 -1.2
v -2.25 2.6 -0.1
v 1.05 2.6 -0.1
v 1.05 -3.8 -0.1
v -2.25 -3.8 -0.1
v -2.25 -3.8 0.1
v 1.05 -3.8 0.1
v 1.05 2.6 0.1
v -2.25 2.6 0.1
v -2.25 2.6 0.1
v 1.05 2.6 0.1
v 1.05 2.6 -0.1
v -2.25 2.6 -0.1
v 1.05 -3.8 -0.1
v 1.05 2.6 -0.1
v 1.05 2.6 0.1
v 1.05 -3.8 0.1
v -2.25 3.8 -1.2
v 2.25 3.8 -1.2
v 2.25 3.8 1.2
v -2.25 3.8 1.2
vt 5.7 0
vt 7.95 0
vt 7.95 3.8
vt 5.7 3.8
vt 5.7 3.8
vt 7.95 3.8
vt 7.95 0
vt 5.7 0
vt 2.6 0
vt 2.6 3.8
vt 1.4 3.8
vt 1.4 0
vt 5.7 3.2
vt 7.35 3.2
vt 7.35 0
vt 5.7 0
vt 5.7 0
vt 7.35 0
vt 7.35 3.2
vt 5.7 3.2
vt 5.7 2.05
vt 7.35 2.05
vt 7.35 1.95
vt 5.7 1.95
vt 1.95 0
vt 1.95 3.2
vt 2.05 3.2
vt 2.05 0
vt 5.7 1.4
vt 7.95 1.4
vt 7.95 2.6
vt 5.7 2.6
vn 0 0 1
vn 0 0 1
vn 0 0 1
vn 0 0 1
vn 0 0 -1
vn 0 0 -1
vn 0 0 -1
vn 0 0 -1
vn -1 0 0
vn -1 0 0
vn -1 0 0
vn -1 0 0
vn 0 0 -1
vn 0 0 -1
vn 0 0 -1
vn 0 0 -1
vn 0 0 1
vn 0 0 1
vn 0 0 1
vn 0 0 1
vn 0 1 0
vn 0 1 0
vn 0 1 0
vn 0 1 0
vn 1 0 0
vn 1 0 0
vn 1 0 0
vn 1 0 0
vn 0 -1 0
vn 0 -1 0
vn 0 -1 0
vn 0 -1 0
f 1/1/1 2/2/2 3/3/3
f 1/1/1 3/3/3 4/4/4
f 5/5/5 6/6/6 7/7/7
f 5/5/5 7/7/7 8/8/8
f 9/9/9 10/10/10 11/11/11
f 9/9/9 11/11/11 12/12/12
f 13/13/13 14/14/14 15/15/15
f 13/13/13 15/15/15 16/16/16
f 17/17/17 18/18/18 19/19/19
f 17/17/17 19/19/19 20/20/20
f 21/21/21 22/22/22 23/23/23
f 21/21/21 23/23/23 24/24/24
f 25/25/25 26/26/26 27/27/27
f 25/25/25 27/27/27 28/28/28
f 29/29/29 30/30/30 31/31/31
f 29/29/29 31/31/31 32/32/32
