# DarkLantern64 low-poly Sponza interpretation; metres, Y-up.
o stairs-west
v 2.25 -2.4090909 0.1
v 1.95 -2.4090909 0.1
v 1.95 -2.4090909 1.1
v 2.25 -2.4090909 1.1
v 2.1 -2.4090909 0.6
v 2.25 -2.65 0.1
v 2.25 -2.4090909 0.1
v 2.25 -2.4090909 1.1
v 2.25 -2.65 1.1
v 1.95 -2.1681818 0.1
v 1.65 -2.1681818 0.1
v 1.65 -2.1681818 1.1
v 1.95 -2.1681818 1.1
v 1.8 -2.1681818 0.6
v 1.95 -2.4090909 0.1
v 1.95 -2.1681818 0.1
v 1.95 -2.1681818 1.1
v 1.95 -2.4090909 1.1
v 1.65 -1.9272727 0.1
v 1.35 -1.9272727 0.1
v 1.35 -1.9272727 1.1
v 1.65 -1.9272727 1.1
v 1.5 -1.9272727 0.6
v 1.65 -2.1681818 0.1
v 1.65 -1.9272727 0.1
v 1.65 -1.9272727 1.1
v 1.65 -2.1681818 1.1
v 1.35 -1.6863636 0.1
v 1.05 -1.6863636 0.1
v 1.05 -1.6863636 1.1
v 1.35 -1.6863636 1.1
v 1.2 -1.6863636 0.6
v 1.35 -1.9272727 0.1
v 1.35 -1.6863636 0.1
v 1.35 -1.6863636 1.1
v 1.35 -1.9272727 1.1
v 1.05 -1.4454545 0.1
v 0.75 -1.4454545 0.1
v 0.75 -1.4454545 1.1
v 1.05 -1.4454545 1.1
v 0.9 -1.4454545 0.6
v 1.05 -1.6863636 0.1
v 1.05 -1.4454545 0.1
v 1.05 -1.4454545 1.1
v 1.05 -1.6863636 1.1
v 0.75 -1.2045455 0.1
v 0.45 -1.2045455 0.1
v 0.45 -1.2045455 1.1
v 0.75 -1.2045455 1.1
v 0.6 -1.2045455 0.6
v 0.75 -1.4454545 0.1
v 0.75 -1.2045455 0.1
v 0.75 -1.2045455 1.1
v 0.75 -1.4454545 1.1
v 0.45 -0.9636364 0.1
v 0.15 -0.9636364 0.1
v 0.15 -0.9636364 1.1
v 0.45 -0.9636364 1.1
v 0.3 -0.9636364 0.6
v 0.45 -1.2045455 0.1
v 0.45 -0.9636364 0.1
v 0.45 -0.9636364 1.1
v 0.45 -1.2045455 1.1
v 0.15 -0.7227273 0.1
v -0.15 -0.7227273 0.1
v -0.15 -0.7227273 1.1
v 0.15 -0.7227273 1.1
v 0 -0.7227273 0.6
v 0.15 -0.9636364 0.1
v 0.15 -0.7227273 0.1
v 0.15 -0.7227273 1.1
v 0.15 -0.9636364 1.1
v -0.15 -0.4818182 0.1
v -0.45 -0.4818182 0.1
v -0.45 -0.4818182 1.1
v -0.15 -0.4818182 1.1
v -0.3 -0.4818182 0.6
v -0.15 -0.7227273 0.1
v -0.15 -0.4818182 0.1
v -0.15 -0.4818182 1.1
v -0.15 -0.7227273 1.1
v -0.45 -0.2409091 0.1
v -0.75 -0.2409091 0.1
v -0.75 -0.2409091 1.1
v -0.45 -0.2409091 1.1
v -0.6 -0.2409091 0.6
v -0.45 -0.4818182 0.1
v -0.45 -0.2409091 0.1
v -0.45 -0.2409091 1.1
v -0.45 -0.4818182 1.1
v -0.75 0 0.1
v -1.05 0 0.1
v -1.05 0 1.1
v -0.75 0 1.1
v -0.9 0 0.6
v -0.75 -0.2409091 0.1
v -0.75 0 0.1
v -0.75 0 1.1
v -0.75 -0.2409091 1.1
v -0.75 0.2409091 -1.1
v -1.05 0.2409091 -1.1
v -1.05 0.2409091 -0.1
v -0.75 0.2409091 -0.1
v -0.9 0.2409091 -0.6
v -1.05 0 -0.1
v -1.05 0.2409091 -0.1
v -1.05 0.2409091 -1.1
v -1.05 0 -1.1
v -0.45 0.4818182 -1.1
v -0.75 0.4818182 -1.1
v -0.75 0.4818182 -0.1
v -0.45 0.4818182 -0.1
v -0.6 0.4818182 -0.6
v -0.75 0.2409091 -0.1
v -0.75 0.4818182 -0.1
v -0.75 0.4818182 -1.1
v -0.75 0.2409091 -1.1
v -0.15 0.7227273 -1.1
v -0.45 0.7227273 -1.1
v -0.45 0.7227273 -0.1
v -0.15 0.7227273 -0.1
v -0.3 0.7227273 -0.6
v -0.45 0.4818182 -0.1
v -0.45 0.7227273 -0.1
v -0.45 0.7227273 -1.1
v -0.45 0.4818182 -1.1
v 0.15 0.9636364 -1.1
v -0.15 0.9636364 -1.1
v -0.15 0.9636364 -0.1
v 0.15 0.9636364 -0.1
v 0 0.9636364 -0.6
v -0.15 0.7227273 -0.1
v -0.15 0.9636364 -0.1
v -0.15 0.9636364 -1.1
v -0.15 0.7227273 -1.1
v 0.45 1.2045455 -1.1
v 0.15 1.2045455 -1.1
v 0.15 1.2045455 -0.1
v 0.45 1.2045455 -0.1
v 0.3 1.2045455 -0.6
v 0.15 0.9636364 -0.1
v 0.15 1.2045455 -0.1
v 0.15 1.2045455 -1.1
v 0.15 0.9636364 -1.1
v 0.75 1.4454545 -1.1
v 0.45 1.4454545 -1.1
v 0.45 1.4454545 -0.1
v 0.75 1.4454545 -0.1
v 0.6 1.4454545 -0.6
v 0.45 1.2045455 -0.1
v 0.45 1.4454545 -0.1
v 0.45 1.4454545 -1.1
v 0.45 1.2045455 -1.1
v 1.05 1.6863636 -1.1
v 0.75 1.6863636 -1.1
v 0.75 1.6863636 -0.1
v 1.05 1.6863636 -0.1
v 0.9 1.6863636 -0.6
v 0.75 1.4454545 -0.1
v 0.75 1.6863636 -0.1
v 0.75 1.6863636 -1.1
v 0.75 1.4454545 -1.1
v 1.35 1.9272727 -1.1
v 1.05 1.9272727 -1.1
v 1.05 1.9272727 -0.1
v 1.35 1.9272727 -0.1
v 1.2 1.9272727 -0.6
v 1.05 1.6863636 -0.1
v 1.05 1.9272727 -0.1
v 1.05 1.9272727 -1.1
v 1.05 1.6863636 -1.1
v 1.65 2.1681818 -1.1
v 1.35 2.1681818 -1.1
v 1.35 2.1681818 -0.1
v 1.65 2.1681818 -0.1
v 1.5 2.1681818 -0.6
v 1.35 1.9272727 -0.1
v 1.35 2.1681818 -0.1
v 1.35 2.1681818 -1.1
v 1.35 1.9272727 -1.1
v 1.95 2.4090909 -1.1
v 1.65 2.4090909 -1.1
v 1.65 2.4090909 -0.1
v 1.95 2.4090909 -0.1
v 1.8 2.4090909 -0.6
v 1.65 2.1681818 -0.1
v 1.65 2.4090909 -0.1
v 1.65 2.4090909 -1.1
v 1.65 2.1681818 -1.1
v 2.25 2.65 -1.1
v 1.95 2.65 -1.1
v 1.95 2.65 -0.1
v 2.25 2.65 -0.1
v 2.1 2.65 -0.6
v 1.95 2.4090909 -0.1
v 1.95 2.65 -0.1
v 1.95 2.65 -1.1
v 1.95 2.4090909 -1.1
v -1.05 0 -1.1
v -2.25 0 -1.1
v -2.25 0 1.1
vt -5.7 -1.95
vt -5.85 -1.95
vt -5.85 -1.45
vt -5.7 -1.45
vt -5.775 -1.7
vt -1.95 0
vt -1.95 0.1204545
vt -1.45 0.1204545
vt -1.45 0
vt -5.85 -1.95
vt -6 -1.95
vt -6 -1.45
vt -5.85 -1.45
vt -5.925 -1.7
vt -1.95 0.1204545
vt -1.95 0.2409091
vt -1.45 0.2409091
vt -1.45 0.1204545
vt -6 -1.95
vt -6.15 -1.95
vt -6.15 -1.45
vt -6 -1.45
vt -6.075 -1.7
vt -1.95 0.2409091
vt -1.95 0.3613636
vt -1.45 0.3613636
vt -1.45 0.2409091
vt -6.15 -1.95
vt -6.3 -1.95
vt -6.3 -1.45
vt -6.15 -1.45
vt -6.225 -1.7
vt -1.95 0.3613636
vt -1.95 0.4818182
vt -1.45 0.4818182
vt -1.45 0.3613636
vt -6.3 -1.95
vt -6.45 -1.95
vt -6.45 -1.45
vt -6.3 -1.45
vt -6.375 -1.7
vt -1.95 0.4818182
vt -1.95 0.6022727
vt -1.45 0.6022727
vt -1.45 0.4818182
vt -6.45 -1.95
vt -6.6 -1.95
vt -6.6 -1.45
vt -6.45 -1.45
vt -6.525 -1.7
vt -1.95 0.6022727
vt -1.95 0.7227273
vt -1.45 0.7227273
vt -1.45 0.6022727
vt -6.6 -1.95
vt -6.75 -1.95
vt -6.75 -1.45
vt -6.6 -1.45
vt -6.675 -1.7
vt -1.95 0.7227273
vt -1.95 0.8431818
vt -1.45 0.8431818
vt -1.45 0.7227273
vt -6.75 -1.95
vt -6.9 -1.95
vt -6.9 -1.45
vt -6.75 -1.45
vt -6.825 -1.7
vt -1.95 0.8431818
vt -1.95 0.9636364
vt -1.45 0.9636364
vt -1.45 0.8431818
vt -6.9 -1.95
vt -7.05 -1.95
vt -7.05 -1.45
vt -6.9 -1.45
vt -6.975 -1.7
vt -1.95 0.9636364
vt -1.95 1.0840909
vt -1.45 1.0840909
vt -1.45 0.9636364
vt -7.05 -1.95
vt -7.2 -1.95
vt -7.2 -1.45
vt -7.05 -1.45
vt -7.125 -1.7
vt -1.95 1.0840909
vt -1.95 1.2045455
vt -1.45 1.2045455
vt -1.45 1.0840909
vt -7.2 -1.95
vt -7.35 -1.95
vt -7.35 -1.45
vt -7.2 -1.45
vt -7.275 -1.7
vt -1.95 1.2045455
vt -1.95 1.325
vt -1.45 1.325
vt -1.45 1.2045455
vt -7.2 -2.55
vt -7.35 -2.55
vt -7.35 -2.05
vt -7.2 -2.05
vt -7.275 -2.3
vt -2.05 1.325
vt -2.05 1.4454545
vt -2.55 1.4454545
vt -2.55 1.325
vt -7.05 -2.55
vt -7.2 -2.55
vt -7.2 -2.05
vt -7.05 -2.05
vt -7.125 -2.3
vt -2.05 1.4454545
vt -2.05 1.5659091
vt -2.55 1.5659091
vt -2.55 1.4454545
vt -6.9 -2.55
vt -7.05 -2.55
vt -7.05 -2.05
vt -6.9 -2.05
vt -6.975 -2.3
vt -2.05 1.5659091
vt -2.05 1.6863636
vt -2.55 1.6863636
vt -2.55 1.5659091
vt -6.75 -2.55
vt -6.9 -2.55
vt -6.9 -2.05
vt -6.75 -2.05
vt -6.825 -2.3
vt -2.05 1.6863636
vt -2.05 1.8068182
vt -2.55 1.8068182
vt -2.55 1.6863636
vt -6.6 -2.55
vt -6.75 -2.55
vt -6.75 -2.05
vt -6.6 -2.05
vt -6.675 -2.3
vt -2.05 1.8068182
vt -2.05 1.9272727
vt -2.55 1.9272727
vt -2.55 1.8068182
vt -6.45 -2.55
vt -6.6 -2.55
vt -6.6 -2.05
vt -6.45 -2.05
vt -6.525 -2.3
vt -2.05 1.9272727
vt -2.05 2.0477273
vt -2.55 2.0477273
vt -2.55 1.9272727
vt -6.3 -2.55
vt -6.45 -2.55
vt -6.45 -2.05
vt -6.3 -2.05
vt -6.375 -2.3
vt -2.05 2.0477273
vt -2.05 2.1681818
vt -2.55 2.1681818
vt -2.55 2.0477273
vt -6.15 -2.55
vt -6.3 -2.55
vt -6.3 -2.05
vt -6.15 -2.05
vt -6.225 -2.3
vt -2.05 2.1681818
vt -2.05 2.2886364
vt -2.55 2.2886364
vt -2.55 2.1681818
vt -6 -2.55
vt -6.15 -2.55
vt -6.15 -2.05
vt -6 -2.05
vt -6.075 -2.3
vt -2.05 2.2886364
vt -2.05 2.4090909
vt -2.55 2.4090909
vt -2.55 2.2886364
vt -5.85 -2.55
vt -6 -2.55
vt -6 -2.05
vt -5.85 -2.05
vt -5.925 -2.3
vt -2.05 2.4090909
vt -2.05 2.5295455
vt -2.55 2.5295455
vt -2.55 2.4090909
vt -5.7 -2.55
vt -5.85 -2.55
vt -5.85 -2.05
vt -5.7 -2.05
vt -5.775 -2.3
vt -2.05 2.5295455
vt -2.05 2.65
vt -2.55 2.65
vt -2.55 2.5295455
vt -7.35 -2.55
vt -7.95 -2.55
vt -7.95 -1.45
vn 0 1 0
vn 0 1 0
vn 0 1 0
vn 0 1 0
vn 0 1 0
vn 1 0 0
vn 1 0 0
vn 1 0 0
vn 1 0 0
vn 0 1 0
vn 0 1 0
vn 0 1 0
vn 0 1 0
vn 0 1 0
vn 1 0 0
vn 1 0 0
vn 1 0 0
vn 1 0 0
vn 0 1 0
vn 0 1 0
vn 0 1 0
vn 0 1 0
vn 0 1 0
vn 1 0 0
vn 1 0 0
vn 1 0 0
vn 1 0 0
vn 0 1 0
vn 0 1 0
vn 0 1 0
vn 0 1 0
vn 0 1 0
vn 1 0 0
vn 1 0 0
vn 1 0 0
vn 1 0 0
vn 0 1 0
vn 0 1 0
vn 0 1 0
vn 0 1 0
vn 0 1 0
vn 1 0 0
vn 1 0 0
vn 1 0 0
vn 1 0 0
vn 0 1 0
vn 0 1 0
vn 0 1 0
vn 0 1 0
vn 0 1 0
vn 1 0 0
vn 1 0 0
vn 1 0 0
vn 1 0 0
vn 0 1 0
vn 0 1 0
vn 0 1 0
vn 0 1 0
vn 0 1 0
vn 1 0 0
vn 1 0 0
vn 1 0 0
vn 1 0 0
vn 0 1 0
vn 0 1 0
vn 0 1 0
vn 0 1 0
vn 0 1 0
vn 1 0 0
vn 1 0 0
vn 1 0 0
vn 1 0 0
vn 0 1 0
vn 0 1 0
vn 0 1 0
vn 0 1 0
vn 0 1 0
vn 1 0 0
vn 1 0 0
vn 1 0 0
vn 1 0 0
vn 0 1 0
vn 0 1 0
vn 0 1 0
vn 0 1 0
vn 0 1 0
vn 1 0 0
vn 1 0 0
vn 1 0 0
vn 1 0 0
vn 0 1 0
vn 0 1 0
vn 0 1 0
vn 0 1 0
vn 0 1 0
vn 1 0 0
vn 1 0 0
vn 1 0 0
vn 1 0 0
vn 0 1 0
vn 0 1 0
vn 0 1 0
vn 0 1 0
vn 0 1 0
vn -1 0 0
vn -1 0 0
vn -1 0 0
vn -1 0 0
vn 0 1 0
vn 0 1 0
vn 0 1 0
vn 0 1 0
vn 0 1 0
vn -1 0 0
vn -1 0 0
vn -1 0 0
vn -1 0 0
vn 0 1 0
vn 0 1 0
vn 0 1 0
vn 0 1 0
vn 0 1 0
vn -1 0 0
vn -1 0 0
vn -1 0 0
vn -1 0 0
vn 0 1 0
vn 0 1 0
vn 0 1 0
vn 0 1 0
vn 0 1 0
vn -1 0 0
vn -1 0 0
vn -1 0 0
vn -1 0 0
vn 0 1 0
vn 0 1 0
vn 0 1 0
vn 0 1 0
vn 0 1 0
vn -1 0 0
vn -1 0 0
vn -1 0 0
vn -1 0 0
vn 0 1 0
vn 0 1 0
vn 0 1 0
vn 0 1 0
vn 0 1 0
vn -1 0 0
vn -1 0 0
vn -1 0 0
vn -1 0 0
vn 0 1 0
vn 0 1 0
vn 0 1 0
vn 0 1 0
vn 0 1 0
vn -1 0 0
vn -1 0 0
vn -1 0 0
vn -1 0 0
vn 0 1 0
vn 0 1 0
vn 0 1 0
vn 0 1 0
vn 0 1 0
vn -1 0 0
vn -1 0 0
vn -1 0 0
vn -1 0 0
vn 0 1 0
vn 0 1 0
vn 0 1 0
vn 0 1 0
vn 0 1 0
vn -1 0 0
vn -1 0 0
vn -1 0 0
vn -1 0 0
vn 0 1 0
vn 0 1 0
vn 0 1 0
vn 0 1 0
vn 0 1 0
vn -1 0 0
vn -1 0 0
vn -1 0 0
vn -1 0 0
vn 0 1 0
vn 0 1 0
vn 0 1 0
vn 0 1 0
vn 0 1 0
vn -1 0 0
vn -1 0 0
vn -1 0 0
vn -1 0 0
vn 0 1 0
vn 0 1 0
vn 0 1 0
f 5/5/5 1/1/1 2/2/2
f 5/5/5 2/2/2 3/3/3
f 5/5/5 3/3/3 4/4/4
f 5/5/5 4/4/4 1/1/1
f 6/6/6 7/7/7 8/8/8
f 6/6/6 8/8/8 9/9/9
f 14/14/14 10/10/10 11/11/11
f 14/14/14 11/11/11 12/12/12
f 14/14/14 12/12/12 13/13/13
f 14/14/14 13/13/13 10/10/10
f 15/15/15 16/16/16 17/17/17
f 15/15/15 17/17/17 18/18/18
f 23/23/23 19/19/19 20/20/20
f 23/23/23 20/20/20 21/21/21
f 23/23/23 21/21/21 22/22/22
f 23/23/23 22/22/22 19/19/19
f 24/24/24 25/25/25 26/26/26
f 24/24/24 26/26/26 27/27/27
f 32/32/32 28/28/28 29/29/29
f 32/32/32 29/29/29 30/30/30
f 32/32/32 30/30/30 31/31/31
f 32/32/32 31/31/31 28/28/28
f 33/33/33 34/34/34 35/35/35
f 33/33/33 35/35/35 36/36/36
f 41/41/41 37/37/37 38/38/38
f 41/41/41 38/38/38 39/39/39
f 41/41/41 39/39/39 40/40/40
f 41/41/41 40/40/40 37/37/37
f 42/42/42 43/43/43 44/44/44
f 42/42/42 44/44/44 45/45/45
f 50/50/50 46/46/46 47/47/47
f 50/50/50 47/47/47 48/48/48
f 50/50/50 48/48/48 49/49/49
f 50/50/50 49/49/49 46/46/46
f 51/51/51 52/52/52 53/53/53
f 51/51/51 53/53/53 54/54/54
f 59/59/59 55/55/55 56/56/56
f 59/59/59 56/56/56 57/57/57
f 59/59/59 57/57/57 58/58/58
f 59/59/59 58/58/58 55/55/55
f 60/60/60 61/61/61 62/62/62
f 60/60/60 62/62/62 63/63/63
f 68/68/68 64/64/64 65/65/65
f 68/68/68 65/65/65 66/66/66
f 68/68/68 66/66/66 67/67/67
f 68/68/68 67/67/67 64/64/64
f 69/69/69 70/70/70 71/71/71
f 69/69/69 71/71/71 72/72/72
f 77/77/77 73/73/73 74/74/74
f 77/77/77 74/74/74 75/75/75
f 77/77/77 75/75/75 76/76/76
f 77/77/77 76/76/76 73/73/73
f 78/78/78 79/79/79 80/80/80
f 78/78/78 80/80/80 81/81/81
f 86/86/86 82/82/82 83/83/83
f 86/86/86 83/83/83 84/84/84
f 86/86/86 84/84/84 85/85/85
f 86/86/86 85/85/85 82/82/82
f 87/87/87 88/88/88 89/89/89
f 87/87/87 89/89/89 90/90/90
f 95/95/95 91/91/91 92/92/92
f 95/95/95 92/92/92 93/93/93
f 95/95/95 93/93/93 94/94/94
f 95/95/95 94/94/94 91/91/91
f 96/96/96 97/97/97 98/98/98
f 96/96/96 98/98/98 99/99/99
f 104/104/104 100/100/100 101/101/101
f 104/104/104 101/101/101 102/102/102
f 104/104/104 102/102/102 103/103/103
f 104/104/104 103/103/103 100/100/100
f 105/105/105 106/106/106 107/107/107
f 105/105/105 107/107/107 108/108/108
f 113/113/113 109/109/109 110/110/110
f 113/113/113 110/110/110 111/111/111
f 113/113/113 111/111/111 112/112/112
f 113/113/113 112/112/112 109/109/109
f 114/114/114 115/115/115 116/116/116
f 114/114/114 116/116/116 117/117/117
f 122/122/122 118/118/118 119/119/119
f 122/122/122 119/119/119 120/120/120
f 122/122/122 120/120/120 121/121/121
f 122/122/122 121/121/121 118/118/118
f 123/123/123 124/124/124 125/125/125
f 123/123/123 125/125/125 126/126/126
f 131/131/131 127/127/127 128/128/128
f 131/131/131 128/128/128 129/129/129
f 131/131/131 129/129/129 130/130/130
f 131/131/131 130/130/130 127/127/127
f 132/132/132 133/133/133 134/134/134
f 132/132/132 134/134/134 135/135/135
f 140/140/140 136/136/136 137/137/137
f 140/140/140 137/137/137 138/138/138
f 140/140/140 138/138/138 139/139/139
f 140/140/140 139/139/139 136/136/136
f 141/141/141 142/142/142 143/143/143
f 141/141/141 143/143/143 144/144/144
f 149/149/149 145/145/145 146/146/146
f 149/149/149 146/146/146 147/147/147
f 149/149/149 147/147/147 148/148/148
f 149/149/149 148/148/148 145/145/145
f 150/150/150 151/151/151 152/152/152
f 150/150/150 152/152/152 153/153/153
f 158/158/158 154/154/154 155/155/155
f 158/158/158 155/155/155 156/156/156
f 158/158/158 156/156/156 157/157/157
f 158/158/158 157/157/157 154/154/154
f 159/159/159 160/160/160 161/161/161
f 159/159/159 161/161/161 162/162/162
f 167/167/167 163/163/163 164/164/164
f 167/167/167 164/164/164 165/165/165
f 167/167/167 165/165/165 166/166/166
f 167/167/167 166/166/166 163/163/163
f 168/168/168 169/169/169 170/170/170
f 168/168/168 170/170/170 171/171/171
f 176/176/176 172/172/172 173/173/173
f 176/176/176 173/173/173 174/174/174
f 176/176/176 174/174/174 175/175/175
f 176/176/176 175/175/175 172/172/172
f 177/177/177 178/178/178 179/179/179
f 177/177/177 179/179/179 180/180/180
f 185/185/185 181/181/181 182/182/182
f 185/185/185 182/182/182 183/183/183
f 185/185/185 183/183/183 184/184/184
f 185/185/185 184/184/184 181/181/181
f 186/186/186 187/187/187 188/188/188
f 186/186/186 188/188/188 189/189/189
f 194/194/194 190/190/190 191/191/191
f 194/194/194 191/191/191 192/192/192
f 194/194/194 192/192/192 193/193/193
f 194/194/194 193/193/193 190/190/190
f 195/195/195 196/196/196 197/197/197
f 195/195/195 197/197/197 198/198/198
f 199/199/199 200/200/200 201/201/201
f 199/199/199 201/201/201 93/93/93
