# DarkLantern64 low-poly Sponza interpretation; metres, Y-up.
o upper-end-arch-pair
v -3.1 11.2 -0.15
v -2.6460155 11.2 -0.15
v -2.6460155 9.9220815 -0.15
v -3.1 8.72 -0.15
v -3.1 8.72 0.15
v -2.6460155 9.9220815 0.15
v -2.6460155 11.2 0.15
v -3.1 11.2 0.15
v -2.6460155 9.9220815 -0.15
v -2.6460155 9.9220815 0.15
v -3.1 8.72 0.15
v -3.1 8.72 -0.15
v -1.55 11.2 -0.15
v -1.55 10.42 -0.15
v -1.55 10.42 0.15
v -1.55 11.2 0.15
v -1.55 10.42 -0.15
v -1.55 10.42 0.15
v -2.6460155 9.9220815 0.15
v -2.6460155 9.9220815 -0.15
v -0.4539845 11.2 -0.15
v -0.4539845 9.9220815 -0.15
v -0.4539845 9.9220815 0.15
v -0.4539845 11.2 0.15
v -0.4539845 9.9220815 -0.15
v -0.4539845 9.9220815 0.15
v -1.55 10.42 0.15
v -1.55 10.42 -0.15
v 0 11.2 -0.15
v 0 8.72 -0.15
v 0 8.72 0.15
v 0 11.2 0.15
v 0 8.72 -0.15
v 0 8.72 0.15
v -0.4539845 9.9220815 0.15
v -0.4539845 9.9220815 -0.15
v 0.4539845 11.2 -0.15
v 0.4539845 9.9220815 -0.15
v 0.4539845 9.9220815 0.15
v 0.4539845 11.2 0.15
v 0.4539845 9.9220815 -0.15
v 0.4539845 9.9220815 0.15
v 0 8.72 0.15
v 0 8.72 -0.15
v 1.55 11.2 -0.15
v 1.55 10.42 -0.15
v 1.55 10.42 0.15
v 1.55 11.2 0.15
v 1.55 10.42 -0.15
v 1.55 10.42 0.15
v 0.4539845 9.9220815 0.15
v 0.4539845 9.9220815 -0.15
v 2.6460155 11.2 -0.15
v 2.6460155 9.9220815 -0.15
v 2.6460155 9.9220815 0.15
v 2.6460155 11.2 0.15
v 2.6460155 9.9220815 -0.15
v 2.6460155 9.9220815 0.15
v 1.55 10.42 0.15
v 1.55 10.42 -0.15
v 3.1 11.2 -0.15
v 3.1 8.72 -0.15
v 3.1 8.72 0.15
v 3.1 11.2 0.15
v 3.1 8.72 -0.15
v 3.1 8.72 0.15
v 2.6460155 9.9220815 0.15
v 2.6460155 9.9220815 -0.15
vt -1.55 5.6
vt -1.3230078 5.6
vt -1.3230078 4.9610408
vt -1.55 4.36
vt -1.55 4.36
vt -1.3230078 4.9610408
vt -1.3230078 5.6
vt -1.55 5.6
vt -0.075 4.9610408
vt 0.075 4.9610408
vt 0.075 4.36
vt -0.075 4.36
vt -0.775 5.6
vt -0.775 5.21
vt -0.775 5.21
vt -0.775 5.6
vt -0.775 -0.075
vt -0.775 0.075
vt -1.3230078 0.075
vt -1.3230078 -0.075
vt -0.2269922 5.6
vt -0.2269922 4.9610408
vt -0.2269922 4.9610408
vt -0.2269922 5.6
vt -0.2269922 -0.075
vt -0.2269922 0.075
vt -0.775 0.075
vt -0.775 -0.075
vt 0 5.6
vt 0 4.36
vt 0 4.36
vt 0 5.6
vt -0.075 4.36
vt 0.075 4.36
vt 0.075 4.9610408
vt -0.075 4.9610408
vt 0.2269922 5.6
vt 0.2269922 4.9610408
vt 0.2269922 4.9610408
vt 0.2269922 5.6
vt -0.075 4.9610408
vt 0.075 4.9610408
vt 0.075 4.36
vt -0.075 4.36
vt 0.775 5.6
vt 0.775 5.21
vt 0.775 5.21
vt 0.775 5.6
vt 0.775 -0.075
vt 0.775 0.075
vt 0.2269922 0.075
vt 0.2269922 -0.075
vt 1.3230078 5.6
vt 1.3230078 4.9610408
vt 1.3230078 4.9610408
vt 1.3230078 5.6
vt 1.3230078 -0.075
vt 1.3230078 0.075
vt 0.775 0.075
vt 0.775 -0.075
vt 1.55 5.6
vt 1.55 4.36
vt 1.55 4.36
vt 1.55 5.6
vt -0.075 4.36
vt 0.075 4.36
vt 0.075 4.9610408
vt -0.075 4.9610408
vn 0 0 -1
vn 0 0 -1
vn 0 0 -1
vn 0 0 -1
vn 0 0 1
vn 0 0 1
vn 0 0 1
vn 0 0 1
vn 0.9355069 -0.3533085 0
vn 0.9355069 -0.3533085 0
vn 0.9355069 -0.3533085 0
vn 0.9355069 -0.3533085 0
vn 0 0 -1
vn 0 0 -1
vn 0 0 1
vn 0 0 1
vn 0.4136168 -0.9104511 0
vn 0.4136168 -0.9104511 0
vn 0.4136168 -0.9104511 0
vn 0.4136168 -0.9104511 0
vn 0 0 -1
vn 0 0 -1
vn 0 0 1
vn 0 0 1
vn -0.4136168 -0.9104511 0
vn -0.4136168 -0.9104511 0
vn -0.4136168 -0.9104511 0
vn -0.4136168 -0.9104511 0
vn 0 0 -1
vn 0 0 -1
vn 0 0 1
vn 0 0 1
vn -0.9355069 -0.3533085 0
vn -0.9355069 -0.3533085 0
vn -0.9355069 -0.3533085 0
vn -0.9355069 -0.3533085 0
vn 0 0 -1
vn 0 0 -1
vn 0 0 1
vn 0 0 1
vn 0.9355069 -0.3533085 0
vn 0.9355069 -0.3533085 0
vn 0.9355069 -0.3533085 0
vn 0.9355069 -0.3533085 0
vn 0 0 -1
vn 0 0 -1
vn 0 0 1
vn 0 0 1
vn 0.4136168 -0.9104511 0
vn 0.4136168 -0.9104511 0
vn 0.4136168 -0.9104511 0
vn 0.4136168 -0.9104511 0
vn 0 0 -1
vn 0 0 -1
vn 0 0 1
vn 0 0 1
vn -0.4136168 -0.9104511 0
vn -0.4136168 -0.9104511 0
vn -0.4136168 -0.9104511 0
vn -0.4136168 -0.9104511 0
vn 0 0 -1
vn 0 0 -1
vn 0 0 1
vn 0 0 1
vn -0.9355069 -0.3533085 0
vn -0.9355069 -0.3533085 0
vn -0.9355069 -0.3533085 0
vn -0.9355069 -0.3533085 0
f 1/1/1 2/2/2 3/3/3
f 1/1/1 3/3/3 4/4/4
f 5/5/5 6/6/6 7/7/7
f 5/5/5 7/7/7 8/8/8
f 9/9/9 10/10/10 11/11/11
f 9/9/9 11/11/11 12/12/12
f 2/2/2 13/13/13 14/14/14
f 2/2/2 14/14/14 3/3/3
f 6/6/6 15/15/15 16/16/16
f 6/6/6 16/16/16 7/7/7
f 17/17/17 18/18/18 19/19/19
f 17/17/17 19/19/19 20/20/20
f 13/13/13 21/21/21 22/22/22
f 13/13/13 22/22/22 14/14/14
f 15/15/15 23/23/23 24/24/24
f 15/15/15 24/24/24 16/16/16
f 25/25/25 26/26/26 27/27/27
f 25/25/25 27/27/27 28/28/28
f 21/21/21 29/29/29 30/30/30
f 21/21/21 30/30/30 22/22/22
f 23/23/23 31/31/31 32/32/32
f 23/23/23 32/32/32 24/24/24
f 33/33/33 34/34/34 35/35/35
f 33/33/33 35/35/35 36/36/36
f 29/29/29 37/37/37 38/38/38
f 29/29/29 38/38/38 30/30/30
f 31/31/31 39/39/39 40/40/40
f 31/31/31 40/40/40 32/32/32
f 41/41/41 42/42/42 43/43/43
f 41/41/41 43/43/43 44/44/44
f 37/37/37 45/45/45 46/46/46
f 37/37/37 46/46/46 38/38/38
f 39/39/39 47/47/47 48/48/48
f 39/39/39 48/48/48 40/40/40
f 49/49/49 50/50/50 51/51/51
f 49/49/49 51/51/51 52/52/52
f 45/45/45 53/53/53 54/54/54
f 45/45/45 54/54/54 46/46/46
f 47/47/47 55/55/55 56/56/56
f 47/47/47 56/56/56 48/48/48
f 57/57/57 58/58/58 59/59/59
f 57/57/57 59/59/59 60/60/60
f 53/53/53 61/61/61 62/62/62
f 53/53/53 62/62/62 54/54/54
f 55/55/55 63/63/63 64/64/64
f 55/55/55 64/64/64 56/56/56
f 65/65/65 66/66/66 67/67/67
f 65/65/65 67/67/67 68/68/68
