# DarkLantern64 low-poly Sponza interpretation; metres, Y-up.
o upper-ceiling-north
v -8 0 -1.61
v -4 0 -1.61
v -4 0 1.61
v -8 0 1.61
v 0 0 -1.61
v 0 0 1.61
v 4 0 -1.61
v 4 0 1.61
v 8 0 -1.61
v 8 0 1.61
vt -4 -3
vt -2 -3
vt -2 -1.39
vt -4 -1.39
vt 0 -3
vt 0 -1.39
vt 2 -3
vt 2 -1.39
vt 4 -3
vt 4 -1.39
vn 0 -1 0
vn 0 -1 0
vn 0 -1 0
vn 0 -1 0
vn 0 -1 0
vn 0 -1 0
vn 0 -1 0
vn 0 -1 0
vn 0 -1 0
vn 0 -1 0
f 1/1/1 2/2/2 3/3/3
f 1/1/1 3/3/3 4/4/4
f 2/2/2 5/5/5 6/6/6
f 2/2/2 6/6/6 3/3/3
f 5/5/5 7/7/7 8/8/8
f 5/5/5 8/8/8 6/6/6
f 7/7/7 9/9/9 10/10/10
f 7/7/7 10/10/10 8/8/8
