# DarkLantern64 low-poly Sponza interpretation; metres, Y-up.
o upper-post-single
v 0.2 2.62 0
v 0.1 2.62 0.1732051
v 0.1 0 0.1732051
v 0.2 0 0
v -0.1 2.62 0.1732051
v -0.1 0 0.1732051
v -0.2 2.62 0
v -0.2 0 0
v -0.1 2.62 -0.1732051
v -0.1 0 -0.1732051
v 0.1 2.62 -0.1732051
v 0.1 0 -0.1732051
v 0.2 2.62 0
v 0.2 0 0
v 0.2 0 0
v 0.1 0 0.1732051
v -0.1 0 0.1732051
v -0.2 0 0
v -0.1 0 -0.1732051
v 0.1 0 -0.1732051
v 0.1 2.62 -0.1732051
v -0.1 2.62 -0.1732051
v -0.2 2.62 0
v -0.1 2.62 0.1732051
v 0.1 2.62 0.1732051
v 0.2 2.62 0
vt 0 1
vt 0.1666667 1
vt 0.1666667 0
vt 0 0
vt 0.3333333 1
vt 0.3333333 0
vt 0.5 1
vt 0.5 0
vt 0.6666667 1
vt 0.6666667 0
vt 0.8333333 1
vt 0.8333333 0
vt 1 1
vt 1 0
vt 0.1 0
vt 0.05 0
vt -0.05 0
vt -0.1 0
vt -0.05 0
vt 0.05 0
vt 0.05 1
vt -0.05 1
vt -0.1 1
vt -0.05 1
vt 0.05 1
vt 0.1 1
vn 1 0 0
vn 0.5 0 0.8660254
vn 0.5 0 0.8660254
vn 1 0 0
vn -0.5 0 0.8660254
vn -0.5 0 0.8660254
vn -1 0 0
vn -1 0 0
vn -0.5 0 -0.8660254
vn -0.5 0 -0.8660254
vn 0.5 0 -0.8660254
vn 0.5 0 -0.8660254
vn 1 0 0
vn 1 0 0
vn 0 -1 0
vn 0 -1 0
vn 0 -1 0
vn 0 -1 0
vn 0 -1 0
vn 0 -1 0
vn 0 1 0
vn 0 1 0
vn 0 1 0
vn 0 1 0
vn 0 1 0
vn 0 1 0
f 1/1/1 2/2/2 3/3/3
f 1/1/1 3/3/3 4/4/4
f 2/2/2 5/5/5 6/6/6
f 2/2/2 6/6/6 3/3/3
f 5/5/5 7/7/7 8/8/8
f 5/5/5 8/8/8 6/6/6
f 7/7/7 9/9/9 10/10/10
f 7/7/7 10/10/10 8/8/8
f 9/9/9 11/11/11 12/12/12
f 9/9/9 12/12/12 10/10/10
f 11/11/11 13/13/13 14/14/14
f 11/11/11 14/14/14 12/12/12
f 15/15/15 16/16/16 17/17/17
f 15/15/15 17/17/17 18/18/18
f 15/15/15 18/18/18 19/19/19
f 15/15/15 19/19/19 20/20/20
f 21/21/21 22/22/22 23/23/23
f 21/21/21 23/23/23 24/24/24
f 21/21/21 24/24/24 25/25/25
f 21/21/21 25/25/25 26/26/26
