# DarkLantern64: metres, +Y up, local origin; Blender (x,z,-y).
# Evaluated geometry; scale/rotation baked; triangles preserve outward winding.
v 0.0649999976 0 -0
v 0.0459619425 0 -0.036769554
v 3.98010194e-18 0 -0.0520000011
v -0.0459619425 0 -0.036769554
v -0.0649999976 0 -6.36816327e-18
v -0.0459619425 0 0.036769554
v -1.19403066e-17 0 0.0520000011
v 0.0459619425 0 0.036769554
v 0.129999995 0.0450000018 -0
v 0.091923885 0.0450000018 -0.073539108
v 7.96020388e-18 0.0450000018 -0.104000002
v -0.091923885 0.0450000018 -0.073539108
v -0.129999995 0.0450000018 -1.27363265e-17
v -0.091923885 0.0450000018 0.073539108
v -2.38806133e-17 0.0450000018 0.104000002
v 0.091923885 0.0450000018 0.073539108
v 0.140000001 0.159999996 -0
v 0.098994948 0.159999996 -0.0791959614
v 8.57252764e-18 0.159999996 -0.112000003
v -0.098994948 0.159999996 -0.0791959614
v -0.140000001 0.159999996 -1.37160442e-17
v -0.098994948 0.159999996 0.0791959614
v -2.57175829e-17 0.159999996 0.112000003
v 0.098994948 0.159999996 0.0791959614
v 0.0900000036 0.254999995 -0
v 0.063639611 0.254999995 -0.0509116873
v 5.51091051e-18 0.254999995 -0.0719999969
v -0.063639611 0.254999995 -0.0509116873
v -0.0900000036 0.254999995 -8.81745664e-18
v -0.063639611 0.254999995 0.0509116873
v -1.65327315e-17 0.254999995 0.0719999969
v 0.063639611 0.254999995 0.0509116873
v 0.0399999991 0.284999996 -0
v 0.0282842703 0.284999996 -0.022627417
v 2.44929358e-18 0.284999996 -0.0320000015
v -0.0282842703 0.284999996 -0.022627417
v -0.0399999991 0.284999996 -3.9188699e-18
v -0.0282842703 0.284999996 0.022627417
v -7.34788095e-18 0.284999996 0.0320000015
v 0.0282842703 0.284999996 0.022627417
v 0.0680000037 0.319999993 -0
v 0.0480832607 0.319999993 -0.03846661
v 4.16379932e-18 0.319999993 -0.0544000007
v -0.0480832607 0.319999993 -0.03846661
v -0.0680000037 0.319999993 -6.66207874e-18
v -0.0480832607 0.319999993 0.03846661
v -1.24913975e-17 0.319999993 0.0544000007
v 0.0480832607 0.319999993 0.03846661
v 0.050999999 0.261999995 -0
v 0.0360624455 0.261999995 -0.0360624455
v 3.12284938e-18 0.261999995 -0.050999999
v -0.0360624455 0.261999995 -0.0360624455
v -0.050999999 0.261999995 -6.24569877e-18
v -0.0360624455 0.261999995 0.0360624455
v -9.36854836e-18 0.261999995 0.050999999
v 0.0360624455 0.261999995 0.0360624455
v 0.0489999987 0.280000001 -0
v 0.0346482322 0.280000001 -0.0346482322
v 3.00038467e-18 0.280000001 -0.0489999987
v -0.0346482322 0.280000001 -0.0346482322
v -0.0489999987 0.280000001 -6.00076935e-18
v -0.0346482322 0.280000001 0.0346482322
v -9.00115361e-18 0.280000001 0.0489999987
v 0.0346482322 0.280000001 0.0346482322
v -0.0412935428 0.27700001 0.0447213762
v -0.0332713947 0.268656343 0.0500155613
v -0.0307064541 0.27700001 0.059278626
v -0.0387286022 0.285343677 0.0539844409
v -0.0862327814 0.254999995 0.0775075108
v -0.0745508596 0.250106961 0.078768827
v -0.073767215 0.254999995 0.090492487
v -0.0854491368 0.25989303 0.0892311707
v -0.0770223439 0.169366285 0.100000001
v -0.0858830512 0.171656772 0.10884542
v -0.094977662 0.170633718 0.100000001
v -0.0861169547 0.168343231 0.0911545828
v 0.0289402585 0.27700001 0.0575821213
v 0.0328770727 0.26954025 0.0480504185
v 0.0430597365 0.27700001 0.0464178808
v 0.0391229242 0.28445977 0.0559495836
v 0.0611805692 0.239999995 0.0967937782
v 0.0684990659 0.235071644 0.0876203924
v 0.0788194314 0.239999995 0.0932062194
v 0.0715009347 0.244928345 0.102379605
v 0.042706456 0.185000002 0.10372138
v 0.0545242317 0.181009978 0.106255107
v 0.0532935448 0.185000002 0.118278623
v 0.0414757691 0.188990027 0.115744896
vt 0.545000017 0.545000017
vt 0.704999983 0.545000017
vt 0.704999983 0.704999983
vt 0.545000017 0.704999983
vt 0.0450000018 0.795000017
vt 0.204999998 0.795000017
vt 0.204999998 0.954999983
vt 0.0450000018 0.954999983
vt 0.431568533 0.818431437
vt 0.455000013 0.875
vt 0.431568533 0.931568563
vt 0.375 0.954999983
vt 0.318431467 0.931568563
vt 0.294999987 0.875
vt 0.318431467 0.818431437
vt 0.375 0.795000017
vt 0.181568548 0.818431437
vt 0.204999998 0.875
vt 0.181568548 0.931568563
vt 0.125 0.954999983
vt 0.0684314594 0.931568563
vt 0.0450000018 0.875
vt 0.0684314594 0.818431437
vt 0.125 0.795000017
vt 0.795000017 0.0450000018
vt 0.954999983 0.0450000018
vt 0.954999983 0.204999998
vt 0.795000017 0.204999998
vt 0.931568563 0.0684314594
vt 0.954999983 0.125
vt 0.931568563 0.181568548
vt 0.875 0.204999998
vt 0.818431437 0.181568548
vt 0.795000017 0.125
vt 0.818431437 0.0684314594
vt 0.875 0.0450000018
vn 0.569210052 -0.822192252 0
vn 0.377448589 -0.78582418 -0.489911228
vn 0.588470578 -0.437983364 -0.679612458
vn 0.890776515 -0.454441637 -1.28125821e-08
vn 0 -0.756168723 -0.654376686
vn 0 -0.41883409 -0.908062756
vn -0.377448589 -0.78582418 -0.489911228
vn -0.588470578 -0.437983364 -0.679612458
vn -0.569210052 -0.822192252 0
vn -0.890776515 -0.454441637 0
vn -0.377448589 -0.78582418 0.489911228
vn -0.588470578 -0.437983364 0.679612458
vn 0 -0.756168723 0.654376686
vn 0 -0.41883409 0.908062756
vn 0.377448589 -0.78582418 0.489911228
vn 0.588470578 -0.437983364 0.679612458
vn 0.646927059 0.169918239 -0.743379533
vn 0.983068228 0.183240056 0
vn 0 0.156757236 -0.987637162
vn -0.646927118 0.169918254 -0.743379533
vn -0.983068228 0.183240041 0
vn -0.646927059 0.169918239 0.743379533
vn 0 0.156757236 0.987637162
vn 0.646927118 0.169918254 0.743379533
vn 0.505602181 0.619864523 -0.600112081
vn 0.760455966 0.649389625 -1.12375496e-08
vn -4.77158899e-08 0.591076553 -0.806615531
vn -0.505602241 0.619864464 -0.600112081
vn -0.760455966 0.649389625 0
vn -0.505602181 0.619864523 0.600112081
vn 4.77158899e-08 0.591076553 0.806615531
vn 0.505602241 0.619864464 0.600112081
vn 0.3425183 0.825899899 -0.447851062
vn 0.514495552 0.857493162 0
vn -9.98875862e-08 0.799999952 -0.600000083
vn -0.342518419 0.825899899 -0.447851062
vn -0.514495552 0.857493162 0
vn -0.3425183 0.825899899 0.447851062
vn 9.98875862e-08 0.799999952 0.600000083
vn 0.342518419 0.825899899 0.447851062
vn 0.723937988 -0.579150558 -0.374831289
vn 0.268829525 -0.519209981 -0.811265469
vn -0.268829763 -0.519209921 -0.811265349
vn -0.723937988 -0.579150558 -0.374831289
vn -0.723937988 -0.579150558 0.374831289
vn -0.268829525 -0.519209981 0.811265469
vn 0.268829763 -0.519209921 0.811265349
vn 0.723937988 -0.579150558 0.374831289
vn 0 -1 0
vn 0 1 0
vn 0.919049978 0.102116555 -0.380682588
vn 0.380683094 0.102116607 -0.919049859
vn -0.380683094 0.102116607 -0.919049859
vn -0.919049978 0.102116555 -0.380682588
vn -0.919049978 0.102116555 0.380682588
vn -0.380683094 0.102116607 0.919049859
vn 0.380683094 0.102116607 0.919049859
vn 0.919049978 0.102116555 0.380682588
vn -0.204139411 -0.661339521 -0.721773684
vn 0.59855175 -0.717210412 0.35685429
vn 0.195799202 0.653551638 0.731117606
vn -0.620620608 0.704102159 -0.345065504
vn 0.950344026 -0.106026635 -0.29258287
vn 0.383445024 0.145108983 0.912092805
vn -0.94442445 0.136876419 0.298876911
vn -0.383115977 -0.144196466 -0.912375748
vn 0.749759912 0.374877959 -0.545276642
vn -0.0692038834 -0.980384886 0.184543714
vn -0.731404006 -0.68184787 0.011474736
vn 0.437270731 -0.481264383 -0.759722888
vn 0.743852615 0.668325245 0.00497186882
vn -0.43721348 0.481133699 0.75983876
vn -0.369800717 -0.106312484 -0.9230088
vn 0.876963556 -0.414839059 -0.242576912
vn 0.377968997 0.1284118 0.91686964
vn -0.87387532 0.425160021 0.235756174
vn -0.514090419 0.559452057 -0.650172651
vn -0.358542144 -0.896355212 0.260758162
f 1/1/1 2/2/2 10/3/3
f 1/1/1 10/3/3 9/4/4
f 2/1/2 3/2/5 11/3/6
f 2/1/2 11/3/6 10/4/3
f 3/1/5 4/2/7 12/3/8
f 3/1/5 12/3/8 11/4/6
f 4/1/7 5/2/9 13/3/10
f 4/1/7 13/3/10 12/4/8
f 5/1/9 6/2/11 14/3/12
f 5/1/9 14/3/12 13/4/10
f 6/1/11 7/2/13 15/3/14
f 6/1/11 15/3/14 14/4/12
f 7/1/13 8/2/15 16/3/16
f 7/1/13 16/3/16 15/4/14
f 8/1/15 1/2/1 9/3/4
f 8/1/15 9/3/4 16/4/16
f 9/1/4 10/2/3 18/3/17
f 9/1/4 18/3/17 17/4/18
f 10/1/3 11/2/6 19/3/19
f 10/1/3 19/3/19 18/4/17
f 11/1/6 12/2/8 20/3/20
f 11/1/6 20/3/20 19/4/19
f 12/1/8 13/2/10 21/3/21
f 12/1/8 21/3/21 20/4/20
f 13/1/10 14/2/12 22/3/22
f 13/1/10 22/3/22 21/4/21
f 14/1/12 15/2/14 23/3/23
f 14/1/12 23/3/23 22/4/22
f 15/1/14 16/2/16 24/3/24
f 15/1/14 24/3/24 23/4/23
f 16/1/16 9/2/4 17/3/18
f 16/1/16 17/3/18 24/4/24
f 17/1/18 18/2/17 26/3/25
f 17/1/18 26/3/25 25/4/26
f 18/1/17 19/2/19 27/3/27
f 18/1/17 27/3/27 26/4/25
f 19/1/19 20/2/20 28/3/28
f 19/1/19 28/3/28 27/4/27
f 20/1/20 21/2/21 29/3/29
f 20/1/20 29/3/29 28/4/28
f 21/1/21 22/2/22 30/3/30
f 21/1/21 30/3/30 29/4/29
f 22/1/22 23/2/23 31/3/31
f 22/1/22 31/3/31 30/4/30
f 23/1/23 24/2/24 32/3/32
f 23/1/23 32/3/32 31/4/31
f 24/1/24 17/2/18 25/3/26
f 24/1/24 25/3/26 32/4/32
f 25/1/26 26/2/25 34/3/33
f 25/1/26 34/3/33 33/4/34
f 26/1/25 27/2/27 35/3/35
f 26/1/25 35/3/35 34/4/33
f 27/1/27 28/2/28 36/3/36
f 27/1/27 36/3/36 35/4/35
f 28/1/28 29/2/29 37/3/37
f 28/1/28 37/3/37 36/4/36
f 29/1/29 30/2/30 38/3/38
f 29/1/29 38/3/38 37/4/37
f 30/1/30 31/2/31 39/3/39
f 30/1/30 39/3/39 38/4/38
f 31/1/31 32/2/32 40/3/40
f 31/1/31 40/3/40 39/4/39
f 32/1/32 25/2/26 33/3/34
f 32/1/32 33/3/34 40/4/40
f 33/5/41 34/6/41 42/7/41
f 33/5/41 42/7/41 41/8/41
f 34/5/42 35/6/42 43/7/42
f 34/5/42 43/7/42 42/8/42
f 35/5/43 36/6/43 44/7/43
f 35/5/43 44/7/43 43/8/43
f 36/5/44 37/6/44 45/7/44
f 36/5/44 45/7/44 44/8/44
f 37/5/45 38/6/45 46/7/45
f 37/5/45 46/7/45 45/8/45
f 38/5/46 39/6/46 47/7/46
f 38/5/46 47/7/46 46/8/46
f 39/5/47 40/6/47 48/7/47
f 39/5/47 48/7/47 47/8/47
f 40/5/48 33/6/48 41/7/48
f 40/5/48 41/7/48 48/8/48
f 1/9/49 8/10/49 7/11/49
f 7/11/49 6/12/49 5/13/49
f 5/13/49 4/14/49 3/15/49
f 3/15/49 2/16/49 1/9/49
f 1/9/49 7/11/49 5/13/49
f 5/13/49 3/15/49 1/9/49
f 48/17/50 41/18/50 42/19/50
f 42/19/50 43/20/50 44/21/50
f 44/21/50 45/22/50 46/23/50
f 46/23/50 47/24/50 48/17/50
f 48/17/50 42/19/50 44/21/50
f 44/21/50 46/23/50 48/17/50
f 49/25/51 50/26/51 58/27/51
f 49/25/51 58/27/51 57/28/51
f 50/25/52 51/26/52 59/27/52
f 50/25/52 59/27/52 58/28/52
f 51/25/53 52/26/53 60/27/53
f 51/25/53 60/27/53 59/28/53
f 52/25/54 53/26/54 61/27/54
f 52/25/54 61/27/54 60/28/54
f 53/25/55 54/26/55 62/27/55
f 53/25/55 62/27/55 61/28/55
f 54/25/56 55/26/56 63/27/56
f 54/25/56 63/27/56 62/28/56
f 55/25/57 56/26/57 64/27/57
f 55/25/57 64/27/57 63/28/57
f 56/25/58 49/26/58 57/27/58
f 56/25/58 57/27/58 64/28/58
f 49/29/49 56/30/49 55/31/49
f 55/31/49 54/32/49 53/33/49
f 53/33/49 52/34/49 51/35/49
f 51/35/49 50/36/49 49/29/49
f 49/29/49 55/31/49 53/33/49
f 53/33/49 51/35/49 49/29/49
f 64/29/50 57/30/50 58/31/50
f 58/31/50 59/32/50 60/33/50
f 60/33/50 61/34/50 62/35/50
f 62/35/50 63/36/50 64/29/50
f 64/29/50 58/31/50 60/33/50
f 60/33/50 62/35/50 64/29/50
f 65/5/59 66/6/59 70/7/59
f 65/5/59 70/7/59 69/8/59
f 66/5/60 67/6/60 71/7/60
f 66/5/60 71/7/60 70/8/60
f 67/5/61 68/6/61 72/7/61
f 67/5/61 72/7/61 71/8/61
f 68/5/62 65/6/62 69/7/62
f 68/5/62 69/7/62 72/8/62
f 69/5/63 70/6/63 73/8/63
f 70/6/63 74/7/63 73/8/63
f 70/5/64 71/6/64 74/8/64
f 71/6/64 75/7/64 74/8/64
f 71/5/65 72/6/65 75/8/65
f 72/6/65 76/7/65 75/8/65
f 72/5/66 69/6/66 76/8/66
f 69/6/66 73/7/66 76/8/66
f 68/5/67 67/6/67 66/7/67
f 68/5/67 66/7/67 65/8/67
f 73/5/68 74/6/68 75/7/68
f 73/5/68 75/7/68 76/8/68
f 77/5/69 78/6/69 82/7/69
f 77/5/69 82/7/69 81/8/69
f 78/5/70 79/6/70 83/7/70
f 78/5/70 83/7/70 82/8/70
f 79/5/71 80/6/71 84/7/71
f 79/5/71 84/7/71 83/8/71
f 80/5/72 77/6/72 81/7/72
f 80/5/72 81/7/72 84/8/72
f 81/5/73 82/6/73 86/7/73
f 81/5/73 86/7/73 85/8/73
f 82/5/74 83/6/74 87/7/74
f 82/5/74 87/7/74 86/8/74
f 83/5/75 84/6/75 88/7/75
f 83/5/75 88/7/75 87/8/75
f 84/5/76 81/6/76 85/7/76
f 84/5/76 85/7/76 88/8/76
f 80/5/77 79/6/77 78/7/77
f 80/5/77 78/7/77 77/8/77
f 85/5/78 86/6/78 87/7/78
f 85/5/78 87/7/78 88/8/78
