# DarkLantern64: metres, +Y up, local origin; Blender (x,z,-y).
# Evaluated geometry; scale/rotation baked; triangles preserve outward winding.
v 0.0930000022 0 -0
v 0.0657609329 0 -0.0657609329
v 5.69460747e-18 0 -0.0930000022
v -0.0657609329 0 -0.0657609329
v -0.0930000022 0 -1.13892149e-17
v -0.0657609329 0 0.0657609329
v -1.70838224e-17 0 0.0930000022
v 0.0657609329 0 0.0657609329
v 0.104999997 0.0149999997 -0
v 0.0742462128 0.0149999997 -0.0742462128
v 6.42939573e-18 0.0149999997 -0.104999997
v -0.0742462128 0.0149999997 -0.0742462128
v -0.104999997 0.0149999997 -1.28587915e-17
v -0.0742462128 0.0149999997 0.0742462128
v -1.92881876e-17 0.0149999997 0.104999997
v 0.0742462128 0.0149999997 0.0742462128
v 0.0370000005 0.0520000011 -0
v 0.0261629503 0.0520000011 -0.0261629503
v 2.26559662e-18 0.0520000011 -0.0370000005
v -0.0261629503 0.0520000011 -0.0261629503
v -0.0370000005 0.0520000011 -4.53119324e-18
v -0.0261629503 0.0520000011 0.0261629503
v -6.79678965e-18 0.0520000011 0.0370000005
v 0.0261629503 0.0520000011 0.0261629503
v 0.023 0.189999998 -0
v 0.0162634552 0.189999998 -0.0162634552
v 1.40834386e-18 0.189999998 -0.023
v -0.0162634552 0.189999998 -0.0162634552
v -0.023 0.189999998 -2.81668771e-18
v -0.0162634552 0.189999998 0.0162634552
v -4.22503136e-18 0.189999998 0.023
v 0.0162634552 0.189999998 0.0162634552
v 0.0900000036 0.219999999 -0
v 0.063639611 0.219999999 -0.063639611
v 5.51091051e-18 0.219999999 -0.0900000036
v -0.063639611 0.219999999 -0.063639611
v -0.0900000036 0.219999999 -1.1021821e-17
v -0.063639611 0.219999999 0.063639611
v -1.65327315e-17 0.219999999 0.0900000036
v 0.063639611 0.219999999 0.063639611
v 0.131999999 0.319999993 -0
v 0.0933380947 0.319999993 -0.0933380947
v 8.0826688e-18 0.319999993 -0.131999999
v -0.0933380947 0.319999993 -0.0933380947
v -0.131999999 0.319999993 -1.61653376e-17
v -0.0933380947 0.319999993 0.0933380947
v -2.42480072e-17 0.319999993 0.131999999
v 0.0933380947 0.319999993 0.0933380947
v 0.136999995 0.405000001 -0
v 0.0968736261 0.405000001 -0.0968736261
v 8.38883068e-18 0.405000001 -0.136999995
v -0.0968736261 0.405000001 -0.0968736261
v -0.136999995 0.405000001 -1.67776614e-17
v -0.0968736261 0.405000001 0.0968736261
v -2.5166492e-17 0.405000001 0.136999995
v 0.0968736261 0.405000001 0.0968736261
v 0.119999997 0.405000001 -0
v 0.0848528147 0.405000001 -0.0848528147
v 7.34788095e-18 0.405000001 -0.119999997
v -0.0848528147 0.405000001 -0.0848528147
v -0.119999997 0.405000001 -1.46957619e-17
v -0.0848528147 0.405000001 0.0848528147
v -2.2043642e-17 0.405000001 0.119999997
v 0.0848528147 0.405000001 0.0848528147
v 0.112000003 0.330000013 -0
v 0.0791959614 0.330000013 -0.0791959614
v 6.85802211e-18 0.330000013 -0.112000003
v -0.0791959614 0.330000013 -0.0791959614
v -0.112000003 0.330000013 -1.37160442e-17
v -0.0791959614 0.330000013 0.0791959614
v -2.05740663e-17 0.330000013 0.112000003
v 0.0791959614 0.330000013 0.0791959614
v 0.0719999969 0.264999986 -0
v 0.0509116873 0.264999986 -0.0509116873
v 4.40872832e-18 0.264999986 -0.0719999969
v -0.0509116873 0.264999986 -0.0509116873
v -0.0719999969 0.264999986 -8.81745664e-18
v -0.0509116873 0.264999986 0.0509116873
v -1.32261854e-17 0.264999986 0.0719999969
v 0.0509116873 0.264999986 0.0509116873
vt 0.0450000018 0.0450000018
vt 0.204999998 0.0450000018
vt 0.204999998 0.204999998
vt 0.0450000018 0.204999998
vt 0.294999987 0.0450000018
vt 0.455000013 0.0450000018
vt 0.455000013 0.204999998
vt 0.294999987 0.204999998
vt 0.545000017 0.0450000018
vt 0.704999983 0.0450000018
vt 0.704999983 0.204999998
vt 0.545000017 0.204999998
vt 0.795000017 0.0450000018
vt 0.954999983 0.0450000018
vt 0.954999983 0.204999998
vt 0.795000017 0.204999998
vt 0.181568548 0.0684314594
vt 0.204999998 0.125
vt 0.181568548 0.181568548
vt 0.125 0.204999998
vt 0.0684314594 0.181568548
vt 0.0450000018 0.125
vt 0.0684314594 0.0684314594
vt 0.125 0.0450000018
vt 0.681568563 0.0684314594
vt 0.704999983 0.125
vt 0.681568563 0.181568548
vt 0.625 0.204999998
vt 0.568431437 0.181568548
vt 0.545000017 0.125
vt 0.568431437 0.0684314594
vt 0.625 0.0450000018
vn 0.74297148 -0.594377041 -0.307748944
vn 0.307748824 -0.5943771 -0.74297142
vn -0.307748824 -0.5943771 -0.74297142
vn -0.74297148 -0.594377041 -0.307748944
vn -0.74297148 -0.594377041 0.307748944
vn -0.307748824 -0.5943771 0.74297142
vn 0.307748824 -0.5943771 0.74297142
vn 0.74297148 -0.594377041 0.307748944
vn 0.468847424 0.861665487 -0.194202885
vn 0.194202989 0.861665547 -0.468847364
vn -0.194202945 0.861665487 -0.468847364
vn -0.468847424 0.861665487 -0.194202885
vn -0.468847424 0.861665487 0.194202885
vn -0.194202989 0.861665547 0.468847364
vn 0.194202945 0.861665487 0.468847364
vn 0.468847424 0.861665487 0.194202885
vn 0.994893432 0.100931227 0
vn 0.70349592 0.10093122 -0.70349586
vn 0.578743935 -0.574552953 -0.578743756
vn 0.818467438 -0.574553072 0
vn 0 0.10093122 -0.994893432
vn 0 -0.574553072 -0.818467379
vn -0.70349592 0.10093122 -0.70349586
vn -0.578743935 -0.574552953 -0.578743756
vn -0.994893432 0.100931227 0
vn -0.818467438 -0.574553072 0
vn -0.70349592 0.10093122 0.70349586
vn -0.578743935 -0.574552953 0.578743756
vn 0 0.10093122 0.994893432
vn 0 -0.574553072 0.818467379
vn 0.70349592 0.10093122 0.70349586
vn 0.578743935 -0.574552953 0.578743756
vn 0.533417463 -0.656453788 -0.533417463
vn 0.7543661 -0.656453848 0
vn -4.56445086e-08 -0.656453848 -0.754366159
vn -0.533417523 -0.656453788 -0.533417523
vn -0.754366219 -0.656453788 0
vn -0.533417463 -0.656453788 0.533417463
vn 4.56445086e-08 -0.656453848 0.754366159
vn 0.533417523 -0.656453788 0.533417523
vn 0.690155149 -0.217650652 -0.690155149
vn 0.976026714 -0.217650637 0
vn -3.23839231e-08 -0.217650637 -0.976026714
vn -0.690155089 -0.217650637 -0.690155149
vn -0.976026714 -0.217650637 0
vn -0.690155149 -0.217650652 0.690155149
vn 3.23839231e-08 -0.217650637 0.976026714
vn 0.690155089 -0.217650637 0.690155149
vn 0.705886602 -0.0587219521 -0.705886602
vn 0.998274446 -0.058721967 0
vn 0 -0.0587219447 -0.998274446
vn -0.705886602 -0.0587219521 -0.705886602
vn -0.998274446 -0.058721967 0
vn -0.705886602 -0.0587219521 0.705886602
vn 0 -0.0587219447 0.998274446
vn 0.705886602 -0.0587219521 0.705886602
vn 0 1 0
vn 6.02925013e-07 1 0
vn -6.02925013e-07 1 0
vn -0.994359255 0.10606496 0
vn -0.703118145 0.106064998 0.703118086
vn -0.672805071 0.307679623 0.672805011
vn -0.951490045 0.307679623 -1.09869713e-08
vn -6.31888994e-08 0.106065057 0.994359195
vn -4.39478853e-08 0.307679653 0.951490045
vn 0.703118145 0.106065013 0.703118145
vn 0.672805071 0.307679653 0.672805071
vn 0.994359255 0.10606496 0
vn 0.951490045 0.307679623 0
vn 0.703118145 0.106064998 -0.703118086
vn 0.672805071 0.307679623 -0.672805011
vn 6.31888994e-08 0.106065057 -0.994359195
vn 4.39478853e-08 0.307679653 -0.951490045
vn -0.703118145 0.106065013 -0.703118145
vn -0.672805071 0.307679653 -0.672805071
vn -0.602213442 0.524097323 0.602213442
vn -0.851658404 0.524097383 0
vn 0 0.524097383 0.851658404
vn 0.602213442 0.524097323 0.602213442
vn 0.851658404 0.524097383 0
vn 0.602213442 0.524097323 -0.602213442
vn 0 0.524097383 -0.851658404
vn -0.602213442 0.524097323 -0.602213442
vn 0 -1 0
vn -1.27034056e-07 1 0
f 1/1/1 2/2/1 10/3/1
f 1/1/1 10/3/1 9/4/1
f 2/1/2 3/2/2 11/3/2
f 2/1/2 11/3/2 10/4/2
f 3/1/3 4/2/3 12/3/3
f 3/1/3 12/3/3 11/4/3
f 4/1/4 5/2/4 13/3/4
f 4/1/4 13/3/4 12/4/4
f 5/1/5 6/2/5 14/3/5
f 5/1/5 14/3/5 13/4/5
f 6/1/6 7/2/6 15/3/6
f 6/1/6 15/3/6 14/4/6
f 7/1/7 8/2/7 16/3/7
f 7/1/7 16/3/7 15/4/7
f 8/1/8 1/2/8 9/3/8
f 8/1/8 9/3/8 16/4/8
f 9/5/9 10/6/9 18/7/9
f 9/5/9 18/7/9 17/8/9
f 10/5/10 11/6/10 19/7/10
f 10/5/10 19/7/10 18/8/10
f 11/5/11 12/6/11 20/7/11
f 11/5/11 20/7/11 19/8/11
f 12/5/12 13/6/12 21/7/12
f 12/5/12 21/7/12 20/8/12
f 13/5/13 14/6/13 22/7/13
f 13/5/13 22/7/13 21/8/13
f 14/5/14 15/6/14 23/7/14
f 14/5/14 23/7/14 22/8/14
f 15/5/15 16/6/15 24/7/15
f 15/5/15 24/7/15 23/8/15
f 16/5/16 9/6/16 17/7/16
f 16/5/16 17/7/16 24/8/16
f 17/9/17 18/10/18 26/11/19
f 17/9/17 26/11/19 25/12/20
f 18/9/18 19/10/21 27/11/22
f 18/9/18 27/11/22 26/12/19
f 19/9/21 20/10/23 28/11/24
f 19/9/21 28/11/24 27/12/22
f 20/9/23 21/10/25 29/11/26
f 20/9/23 29/11/26 28/12/24
f 21/9/25 22/10/27 30/11/28
f 21/9/25 30/11/28 29/12/26
f 22/9/27 23/10/29 31/11/30
f 22/9/27 31/11/30 30/12/28
f 23/9/29 24/10/31 32/11/32
f 23/9/29 32/11/32 31/12/30
f 24/9/31 17/10/17 25/11/20
f 24/9/31 25/11/20 32/12/32
f 25/1/20 26/2/19 34/3/33
f 25/1/20 34/3/33 33/4/34
f 26/1/19 27/2/22 35/3/35
f 26/1/19 35/3/35 34/4/33
f 27/1/22 28/2/24 36/3/36
f 27/1/22 36/3/36 35/4/35
f 28/1/24 29/2/26 37/3/37
f 28/1/24 37/3/37 36/4/36
f 29/1/26 30/2/28 38/3/38
f 29/1/26 38/3/38 37/4/37
f 30/1/28 31/2/30 39/3/39
f 30/1/28 39/3/39 38/4/38
f 31/1/30 32/2/32 40/3/40
f 31/1/30 40/3/40 39/4/39
f 32/1/32 25/2/20 33/3/34
f 32/1/32 33/3/34 40/4/40
f 33/1/34 34/2/33 42/3/41
f 33/1/34 42/3/41 41/4/42
f 34/1/33 35/2/35 43/3/43
f 34/1/33 43/3/43 42/4/41
f 35/1/35 36/2/36 44/3/44
f 35/1/35 44/3/44 43/4/43
f 36/1/36 37/2/37 45/3/45
f 36/1/36 45/3/45 44/4/44
f 37/1/37 38/2/38 46/3/46
f 37/1/37 46/3/46 45/4/45
f 38/1/38 39/2/39 47/3/47
f 38/1/38 47/3/47 46/4/46
f 39/1/39 40/2/40 48/3/48
f 39/1/39 48/3/48 47/4/47
f 40/1/40 33/2/34 41/3/42
f 40/1/40 41/3/42 48/4/48
f 41/5/42 42/6/41 50/7/49
f 41/5/42 50/7/49 49/8/50
f 42/5/41 43/6/43 51/7/51
f 42/5/41 51/7/51 50/8/49
f 43/5/43 44/6/44 52/7/52
f 43/5/43 52/7/52 51/8/51
f 44/5/44 45/6/45 53/7/53
f 44/5/44 53/7/53 52/8/52
f 45/5/45 46/6/46 54/7/54
f 45/5/45 54/7/54 53/8/53
f 46/5/46 47/6/47 55/7/55
f 46/5/46 55/7/55 54/8/54
f 47/5/47 48/6/48 56/7/56
f 47/5/47 56/7/56 55/8/55
f 48/5/48 41/6/42 49/7/50
f 48/5/48 49/7/50 56/8/56
f 49/13/57 50/14/57 58/15/57
f 49/13/57 58/15/57 57/16/57
f 50/13/58 51/14/58 59/15/58
f 50/13/58 59/15/58 58/16/58
f 51/13/59 52/14/59 60/15/59
f 51/13/59 60/15/59 59/16/59
f 52/13/57 53/14/57 61/15/57
f 52/13/57 61/15/57 60/16/57
f 53/13/57 54/14/57 62/15/57
f 53/13/57 62/15/57 61/16/57
f 54/13/59 55/14/59 63/15/59
f 54/13/59 63/15/59 62/16/59
f 55/13/58 56/14/58 64/15/58
f 55/13/58 64/15/58 63/16/58
f 56/13/57 49/14/57 57/15/57
f 56/13/57 57/15/57 64/16/57
f 57/9/60 58/10/61 66/11/62
f 57/9/60 66/11/62 65/12/63
f 58/9/61 59/10/64 67/11/65
f 58/9/61 67/11/65 66/12/62
f 59/9/64 60/10/66 68/11/67
f 59/9/64 68/11/67 67/12/65
f 60/9/66 61/10/68 69/11/69
f 60/9/66 69/11/69 68/12/67
f 61/9/68 62/10/70 70/11/71
f 61/9/68 70/11/71 69/12/69
f 62/9/70 63/10/72 71/11/73
f 62/9/70 71/11/73 70/12/71
f 63/9/72 64/10/74 72/11/75
f 63/9/72 72/11/75 71/12/73
f 64/9/74 57/10/60 65/11/63
f 64/9/74 65/11/63 72/12/75
f 65/9/63 66/10/62 74/11/76
f 65/9/63 74/11/76 73/12/77
f 66/9/62 67/10/65 75/11/78
f 66/9/62 75/11/78 74/12/76
f 67/9/65 68/10/67 76/11/79
f 67/9/65 76/11/79 75/12/78
f 68/9/67 69/10/69 77/11/80
f 68/9/67 77/11/80 76/12/79
f 69/9/69 70/10/71 78/11/81
f 69/9/69 78/11/81 77/12/80
f 70/9/71 71/10/73 79/11/82
f 70/9/71 79/11/82 78/12/81
f 71/9/73 72/10/75 80/11/83
f 71/9/73 80/11/83 79/12/82
f 72/9/75 65/10/63 73/11/77
f 72/9/75 73/11/77 80/12/83
f 1/17/84 8/18/84 7/19/84
f 7/19/84 6/20/84 5/21/84
f 5/21/84 4/22/84 3/23/84
f 3/23/84 2/24/84 1/17/84
f 1/17/84 7/19/84 5/21/84
f 5/21/84 3/23/84 1/17/84
f 80/25/85 73/26/85 74/27/85
f 74/27/85 75/28/85 76/29/85
f 76/29/85 77/30/85 78/31/85
f 78/31/85 79/32/85 80/25/85
f 80/25/85 74/27/85 76/29/85
f 76/29/85 78/31/85 80/25/85
